{
    "asset" : {
        "generator" : "Khronos glTF Blender I/O v1.0.5",
        "version" : "2.0"
    },
    "scene" : 0,
    "scenes" : [
        {
            "name" : "Scene",
            "nodes" : [
                0
            ]
        }
    ],
    "nodes" : [
        {
            "mesh" : 0,
            "name" : "Cylinder",
            "scale" : [
                1,
                21.72690773010254,
                1
            ],
            "translation" : [
                0,
                21.106731414794922,
                0
            ]
        }
    ],
    "meshes" : [
        {
            "name" : "Cylinder",
            "primitives" : [
                {
                    "attributes" : {
                        "POSITION" : 0,
                        "NORMAL" : 1,
                        "TEXCOORD_0" : 2
                    },
                    "indices" : 3
                }
            ]
        }
    ],
    "accessors" : [
        {
            "bufferView" : 0,
            "componentType" : 5126,
            "count" : 791,
            "max" : [
                1,
                1.245253086090088,
                11.889663696289062
            ],
            "min" : [
                -1,
                -1,
                -1
            ],
            "type" : "VEC3"
        },
        {
            "bufferView" : 1,
            "componentType" : 5126,
            "count" : 791,
            "type" : "VEC3"
        },
        {
            "bufferView" : 2,
            "componentType" : 5126,
            "count" : 791,
            "type" : "VEC2"
        },
        {
            "bufferView" : 3,
            "componentType" : 5123,
            "count" : 1209,
            "type" : "SCALAR"
        }
    ],
    "bufferViews" : [
        {
            "buffer" : 0,
            "byteLength" : 9492,
            "byteOffset" : 0
        },
        {
            "buffer" : 0,
            "byteLength" : 9492,
            "byteOffset" : 9492
        },
        {
            "buffer" : 0,
            "byteLength" : 6328,
            "byteOffset" : 18984
        },
        {
            "buffer" : 0,
            "byteLength" : 2418,
            "byteOffset" : 25312
        }
    ],
    "buffers" : [
        {
            "byteLength" : 27732,
            "uri" : "flag.bin"
        }
    ]
}
