{
  "accessors": [
    {
      "bufferView": 2,
      "componentType": 5126,
      "count": 18812,
      "max": [
        49.498870849609375,
        48.048233032226562,
        36.365310668945312
      ],
      "min": [
        0,
        0,
        0
      ],
      "type": "VEC3"
    },
    {
      "bufferView": 2,
      "byteOffset": 225744,
      "componentType": 5126,
      "count": 18812,
      "max": [
        0.99997836351394653,
        0.99997353553771973,
        1
      ],
      "min": [
        -0.99993318319320679,
        -0.99991035461425781,
        -1
      ],
      "type": "VEC3"
    },
    {
      "bufferView": 3,
      "componentType": 5126,
      "count": 18812,
      "max": [
        0.99947905540466309,
        0.99671906232833862,
        0.99763643741607666,
        -1
      ],
      "min": [
        -0.99401438236236572,
        -0.99978792667388916,
        -0.9986688494682312,
        -1
      ],
      "type": "VEC4"
    },
    {
      "bufferView": 1,
      "componentType": 5126,
      "count": 18812,
      "max": [
        0.99668198823928833,
        0.99804699420928955
      ],
      "min": [
        0.0019529999699443579,
        0.0071390001103281975
      ],
      "type": "VEC2"
    },
    {
      "bufferView": 0,
      "componentType": 5125,
      "count": 107004,
      "max": [
        18811
      ],
      "min": [
        0
      ],
      "type": "SCALAR"
    },
    {
      "bufferView": 2,
      "byteOffset": 451488,
      "componentType": 5126,
      "count": 65532,
      "max": [
        44.11505126953125,
        43.458259582519531,
        36.753261566162109
      ],
      "min": [
        5.0193386077880859,
        4.0632152557373047,
        16.440109252929688
      ],
      "type": "VEC3"
    },
    {
      "bufferView": 2,
      "byteOffset": 1237872,
      "componentType": 5126,
      "count": 65532,
      "max": [
        0.99994224309921265,
        0.9999316930770874,
        0.99999016523361206
      ],
      "min": [
        -0.99999964237213135,
        -0.99989449977874756,
        -0.99999427795410156
      ],
      "type": "VEC3"
    },
    {
      "bufferView": 3,
      "byteOffset": 300992,
      "componentType": 5126,
      "count": 65532,
      "max": [
        0.99994736909866333,
        0.99999099969863892,
        0.99996817111968994,
        -1
      ],
      "min": [
        -0.99989908933639526,
        -0.99818962812423706,
        -0.99999451637268066,
        -1
      ],
      "type": "VEC4"
    },
    {
      "bufferView": 1,
      "byteOffset": 150496,
      "componentType": 5126,
      "count": 65532,
      "max": [
        0.99804699420928955,
        0.99804699420928955
      ],
      "min": [
        0.0019529999699443579,
        0.0055309999734163284
      ],
      "type": "VEC2"
    },
    {
      "bufferView": 0,
      "byteOffset": 428016,
      "componentType": 5125,
      "count": 379083,
      "max": [
        65531
      ],
      "min": [
        0
      ],
      "type": "SCALAR"
    },
    {
      "bufferView": 2,
      "byteOffset": 2024256,
      "componentType": 5126,
      "count": 49635,
      "max": [
        44.438816070556641,
        47.202159881591797,
        37.853145599365234
      ],
      "min": [
        4.5557842254638672,
        3.5107135772705078,
        19.819074630737305
      ],
      "type": "VEC3"
    },
    {
      "bufferView": 2,
      "byteOffset": 2619876,
      "componentType": 5126,
      "count": 49635,
      "max": [
        0.99994355440139771,
        0.99999934434890747,
        0.99999690055847168
      ],
      "min": [
        -0.99998348951339722,
        -0.99997031688690186,
        -0.99996644258499146
      ],
      "type": "VEC3"
    },
    {
      "bufferView": 3,
      "byteOffset": 1349504,
      "componentType": 5126,
      "count": 49635,
      "max": [
        0.99983477592468262,
        0.99985736608505249,
        0.99996930360794067,
        -1
      ],
      "min": [
        -0.99985438585281372,
        -0.99994248151779175,
        -0.99996984004974365,
        -1
      ],
      "type": "VEC4"
    },
    {
      "bufferView": 1,
      "byteOffset": 674752,
      "componentType": 5126,
      "count": 49635,
      "max": [
        0.99804699420928955,
        0.99804699420928955
      ],
      "min": [
        0.0019529999699443579,
        0.0055309999734163284
      ],
      "type": "VEC2"
    },
    {
      "bufferView": 0,
      "byteOffset": 1944348,
      "componentType": 5125,
      "count": 285597,
      "max": [
        49634
      ],
      "min": [
        0
      ],
      "type": "SCALAR"
    }
  ],
  "asset": {
    "extras": {
      "author": "Francesco Coldesina (https://sketchfab.com/topfrank2013)",
      "license": "CC-BY-4.0 (http://creativecommons.org/licenses/by/4.0/)",
      "source": "https://sketchfab.com/models/bb7e9cf4496f420c8d825d2e507f124b",
      "title": "Bread in Basket"
    },
    "generator": "Sketchfab-3.19.6",
    "version": "2.0"
  },
  "bufferViews": [
    {
      "buffer": 0,
      "byteLength": 3086736,
      "byteOffset": 0,
      "name": "floatBufferViews",
      "target": 34963
    },
    {
      "buffer": 0,
      "byteLength": 1071832,
      "byteOffset": 3086736,
      "byteStride": 8,
      "name": "floatBufferViews",
      "target": 34962
    },
    {
      "buffer": 0,
      "byteLength": 3215496,
      "byteOffset": 4158568,
      "byteStride": 12,
      "name": "floatBufferViews",
      "target": 34962
    },
    {
      "buffer": 0,
      "byteLength": 2143664,
      "byteOffset": 7374064,
      "byteStride": 16,
      "name": "floatBufferViews",
      "target": 34962
    }
  ],
  "buffers": [
    {
      "byteLength": 9517728,
      "uri": "scene.bin"
    }
  ],
  "images": [
    {
      "uri": "textures/Pagnotta_emissive.jpeg"
    },
    {
      "uri": "textures/Pagnotta_normal.png"
    },
    {
      "uri": "textures/Pagnotta_metallicRoughness.png"
    },
    {
      "uri": "textures/Pagnotta_baseColor.jpeg"
    },
    {
      "uri": "textures/Material__7_normal.png"
    },
    {
      "uri": "textures/Material__7_baseColor.jpeg"
    }
  ],
  "materials": [
    {
      "doubleSided": true,
      "emissiveFactor": [
        0,
        0,
        0
      ],
      "name": "Material__7",
      "normalTexture": {
        "index": 4,
        "scale": 1,
        "texCoord": 0
      },
      "pbrMetallicRoughness": {
        "baseColorFactor": [
          1,
          1,
          1,
          1
        ],
        "baseColorTexture": {
          "index": 5,
          "texCoord": 0
        },
        "metallicFactor": 0,
        "roughnessFactor": 0.59999999999999998
      }
    },
    {
      "doubleSided": true,
      "emissiveFactor": [
        0,
        0,
        0
      ],
      "emissiveTexture": {
        "index": 0,
        "texCoord": 0
      },
      "name": "Pagnotta",
      "normalTexture": {
        "index": 1,
        "scale": 1,
        "texCoord": 0
      },
      "pbrMetallicRoughness": {
        "baseColorFactor": [
          1,
          1,
          1,
          1
        ],
        "baseColorTexture": {
          "index": 3,
          "texCoord": 0
        },
        "metallicFactor": 0,
        "metallicRoughnessTexture": {
          "index": 2,
          "texCoord": 0
        },
        "roughnessFactor": 0.20000000000000001
      }
    }
  ],
  "meshes": [
    {
      "primitives": [
        {
          "attributes": {
            "NORMAL": 1,
            "POSITION": 0,
            "TANGENT": 2,
            "TEXCOORD_0": 3
          },
          "indices": 4,
          "material": 0,
          "mode": 4
        }
      ]
    },
    {
      "primitives": [
        {
          "attributes": {
            "NORMAL": 6,
            "POSITION": 5,
            "TANGENT": 7,
            "TEXCOORD_0": 8
          },
          "indices": 9,
          "material": 1,
          "mode": 4
        }
      ]
    },
    {
      "primitives": [
        {
          "attributes": {
            "NORMAL": 11,
            "POSITION": 10,
            "TANGENT": 12,
            "TEXCOORD_0": 13
          },
          "indices": 14,
          "material": 1,
          "mode": 4
        }
      ]
    }
  ],
  "nodes": [
    {
      "children": [
        1
      ],
      "name": "RootNode (gltf orientation matrix)",
      "rotation": [
        -0.70710678118654746,
        -0,
        -0,
        0.70710678118654757
      ]
    },
    {
      "children": [
        2
      ],
      "name": "RootNode (model correction matrix)"
    },
    {
      "children": [
        3
      ],
      "matrix": [
        1,
        0,
        0,
        0,
        0,
        1,
        0,
        0,
        0,
        0,
        1,
        0,
        -25.603900909423828,
        -23.955696105957031,
        -18.165756225585938,
        1
      ],
      "name": "Cesto Bread.obj.cleaner.gles"
    },
    {
      "children": [
        4,
        5,
        6
      ],
      "name": ""
    },
    {
      "mesh": 0,
      "name": ""
    },
    {
      "mesh": 1,
      "name": ""
    },
    {
      "mesh": 2,
      "name": ""
    }
  ],
  "samplers": [
    {
      "magFilter": 9729,
      "minFilter": 9987,
      "wrapS": 10497,
      "wrapT": 10497
    }
  ],
  "scene": 0,
  "scenes": [
    {
      "name": "OSG_Scene",
      "nodes": [
        0
      ]
    }
  ],
  "textures": [
    {
      "sampler": 0,
      "source": 0
    },
    {
      "sampler": 0,
      "source": 1
    },
    {
      "sampler": 0,
      "source": 2
    },
    {
      "sampler": 0,
      "source": 3
    },
    {
      "sampler": 0,
      "source": 4
    },
    {
      "sampler": 0,
      "source": 5
    }
  ]
}

