{
    "asset" : {
        "generator" : "Khronos glTF Blender I/O v1.0.5",
        "version" : "2.0"
    },
    "scene" : 0,
    "scenes" : [
        {
            "name" : "Scene",
            "nodes" : [
                0,
                1
            ]
        }
    ],
    "nodes" : [
        {
            "mesh" : 0,
            "name" : "Cylinder"
        },
        {
            "mesh" : 1,
            "name" : "Cylinder.001",
            "rotation" : [
                1,
                0,
                0,
                -1.3435884227419592e-07
            ],
            "translation" : [
                12.521594047546387,
                0,
                0
            ]
        }
    ],
    "meshes" : [
        {
            "name" : "Cylinder",
            "primitives" : [
                {
                    "attributes" : {
                        "POSITION" : 0,
                        "NORMAL" : 1,
                        "TEXCOORD_0" : 2
                    },
                    "indices" : 3
                }
            ]
        },
        {
            "name" : "Cylinder.001",
            "primitives" : [
                {
                    "attributes" : {
                        "POSITION" : 4,
                        "NORMAL" : 5,
                        "TEXCOORD_0" : 6
                    },
                    "indices" : 7
                }
            ]
        }
    ],
    "accessors" : [
        {
            "bufferView" : 0,
            "componentType" : 5126,
            "count" : 19754,
            "max" : [
                3.8732781410217285,
                3.6774284839630127,
                14.247631072998047
            ],
            "min" : [
                -2.3179101943969727,
                -2.3179116249084473,
                -2.5855302810668945
            ],
            "type" : "VEC3"
        },
        {
            "bufferView" : 1,
            "componentType" : 5126,
            "count" : 19754,
            "type" : "VEC3"
        },
        {
            "bufferView" : 2,
            "componentType" : 5126,
            "count" : 19754,
            "type" : "VEC2"
        },
        {
            "bufferView" : 3,
            "componentType" : 5123,
            "count" : 32628,
            "type" : "SCALAR"
        },
        {
            "bufferView" : 4,
            "componentType" : 5126,
            "count" : 11760,
            "max" : [
                -9.505481719970703,
                -0.1213872954249382,
                0.5398271083831787
            ],
            "min" : [
                -10.878978729248047,
                -1.6474806070327759,
                -0.6634329557418823
            ],
            "type" : "VEC3"
        },
        {
            "bufferView" : 5,
            "componentType" : 5126,
            "count" : 11760,
            "type" : "VEC3"
        },
        {
            "bufferView" : 6,
            "componentType" : 5126,
            "count" : 11760,
            "type" : "VEC2"
        },
        {
            "bufferView" : 7,
            "componentType" : 5123,
            "count" : 11988,
            "type" : "SCALAR"
        }
    ],
    "bufferViews" : [
        {
            "buffer" : 0,
            "byteLength" : 237048,
            "byteOffset" : 0
        },
        {
            "buffer" : 0,
            "byteLength" : 237048,
            "byteOffset" : 237048
        },
        {
            "buffer" : 0,
            "byteLength" : 158032,
            "byteOffset" : 474096
        },
        {
            "buffer" : 0,
            "byteLength" : 65256,
            "byteOffset" : 632128
        },
        {
            "buffer" : 0,
            "byteLength" : 141120,
            "byteOffset" : 697384
        },
        {
            "buffer" : 0,
            "byteLength" : 141120,
            "byteOffset" : 838504
        },
        {
            "buffer" : 0,
            "byteLength" : 94080,
            "byteOffset" : 979624
        },
        {
            "buffer" : 0,
            "byteLength" : 23976,
            "byteOffset" : 1073704
        }
    ],
    "buffers" : [
        {
            "byteLength" : 1097680,
            "uri" : "uber machinegun.bin"
        }
    ]
}
