{
    "asset" : {
        "generator" : "Khronos glTF Blender I/O v1.0.5",
        "version" : "2.0"
    },
    "scene" : 0,
    "scenes" : [
        {
            "name" : "Scene",
            "nodes" : [
                0,
                1
            ]
        }
    ],
    "nodes" : [
        {
            "mesh" : 0,
            "name" : "Cube"
        },
        {
            "mesh" : 1,
            "name" : "Cylinder",
            "rotation" : [
                0.7071068286895752,
                0,
                0,
                0.7071067094802856
            ]
        }
    ],
    "materials" : [
        {
            "doubleSided" : true,
            "name" : "Material",
            "pbrMetallicRoughness" : {
                "baseColorFactor" : [
                    0.800000011920929,
                    0.800000011920929,
                    0.800000011920929,
                    1
                ],
                "metallicFactor" : 0,
                "roughnessFactor" : 0.4000000059604645
            }
        },
        {
            "doubleSided" : true,
            "name" : "None",
            "pbrMetallicRoughness" : {
                "baseColorFactor" : [
                    0.800000011920929,
                    0.800000011920929,
                    0.800000011920929,
                    1
                ],
                "metallicFactor" : 0,
                "roughnessFactor" : 0.2546440064907074
            }
        }
    ],
    "meshes" : [
        {
            "name" : "Cube",
            "primitives" : [
                {
                    "attributes" : {
                        "POSITION" : 0,
                        "NORMAL" : 1,
                        "TEXCOORD_0" : 2
                    },
                    "indices" : 3,
                    "material" : 0
                }
            ]
        },
        {
            "name" : "Cylinder",
            "primitives" : [
                {
                    "attributes" : {
                        "POSITION" : 4,
                        "NORMAL" : 5,
                        "TEXCOORD_0" : 6
                    },
                    "indices" : 7,
                    "material" : 1
                },
                {
                    "attributes" : {
                        "POSITION" : 8,
                        "NORMAL" : 9,
                        "TEXCOORD_0" : 10
                    },
                    "indices" : 11,
                    "material" : 1
                },
                {
                    "attributes" : {
                        "POSITION" : 12,
                        "NORMAL" : 13,
                        "TEXCOORD_0" : 14
                    },
                    "indices" : 15,
                    "material" : 1
                }
            ]
        }
    ],
    "accessors" : [
        {
            "bufferView" : 0,
            "componentType" : 5126,
            "count" : 43543,
            "max" : [
                2.9199719429016113,
                5.009969711303711,
                0.8473020792007446
            ],
            "min" : [
                -2.9199719429016113,
                -0.12208914756774902,
                -1.0007392168045044
            ],
            "type" : "VEC3"
        },
        {
            "bufferView" : 1,
            "componentType" : 5126,
            "count" : 43543,
            "type" : "VEC3"
        },
        {
            "bufferView" : 2,
            "componentType" : 5126,
            "count" : 43543,
            "type" : "VEC2"
        },
        {
            "bufferView" : 3,
            "componentType" : 5123,
            "count" : 72786,
            "type" : "SCALAR"
        },
        {
            "bufferView" : 4,
            "componentType" : 5126,
            "count" : 65535,
            "max" : [
                0.6795615553855896,
                0.4724581837654114,
                -2.436143636703491
            ],
            "min" : [
                -0.6840422749519348,
                -1.0214619636535645,
                -4.528762340545654
            ],
            "type" : "VEC3"
        },
        {
            "bufferView" : 5,
            "componentType" : 5126,
            "count" : 65535,
            "type" : "VEC3"
        },
        {
            "bufferView" : 6,
            "componentType" : 5126,
            "count" : 65535,
            "type" : "VEC2"
        },
        {
            "bufferView" : 7,
            "componentType" : 5123,
            "count" : 109773,
            "type" : "SCALAR"
        },
        {
            "bufferView" : 8,
            "componentType" : 5126,
            "count" : 9401,
            "max" : [
                0.6966009736061096,
                0.042466554790735245,
                -3.519423246383667
            ],
            "min" : [
                -0.24979054927825928,
                -1.031834602355957,
                -4.520986080169678
            ],
            "type" : "VEC3"
        },
        {
            "bufferView" : 9,
            "componentType" : 5126,
            "count" : 9401,
            "type" : "VEC3"
        },
        {
            "bufferView" : 10,
            "componentType" : 5126,
            "count" : 9401,
            "type" : "VEC2"
        },
        {
            "bufferView" : 11,
            "componentType" : 5123,
            "count" : 15420,
            "type" : "SCALAR"
        },
        {
            "bufferView" : 12,
            "componentType" : 5126,
            "count" : 39,
            "max" : [
                0.5003064870834351,
                0.03363606706261635,
                -4.428831100463867
            ],
            "min" : [
                0.4611169099807739,
                -0.007659806404262781,
                -4.474868297576904
            ],
            "type" : "VEC3"
        },
        {
            "bufferView" : 13,
            "componentType" : 5126,
            "count" : 39,
            "type" : "VEC3"
        },
        {
            "bufferView" : 14,
            "componentType" : 5126,
            "count" : 39,
            "type" : "VEC2"
        },
        {
            "bufferView" : 15,
            "componentType" : 5123,
            "count" : 51,
            "type" : "SCALAR"
        }
    ],
    "bufferViews" : [
        {
            "buffer" : 0,
            "byteLength" : 522516,
            "byteOffset" : 0
        },
        {
            "buffer" : 0,
            "byteLength" : 522516,
            "byteOffset" : 522516
        },
        {
            "buffer" : 0,
            "byteLength" : 348344,
            "byteOffset" : 1045032
        },
        {
            "buffer" : 0,
            "byteLength" : 145572,
            "byteOffset" : 1393376
        },
        {
            "buffer" : 0,
            "byteLength" : 786420,
            "byteOffset" : 1538948
        },
        {
            "buffer" : 0,
            "byteLength" : 786420,
            "byteOffset" : 2325368
        },
        {
            "buffer" : 0,
            "byteLength" : 524280,
            "byteOffset" : 3111788
        },
        {
            "buffer" : 0,
            "byteLength" : 219546,
            "byteOffset" : 3636068
        },
        {
            "buffer" : 0,
            "byteLength" : 112812,
            "byteOffset" : 3855616
        },
        {
            "buffer" : 0,
            "byteLength" : 112812,
            "byteOffset" : 3968428
        },
        {
            "buffer" : 0,
            "byteLength" : 75208,
            "byteOffset" : 4081240
        },
        {
            "buffer" : 0,
            "byteLength" : 30840,
            "byteOffset" : 4156448
        },
        {
            "buffer" : 0,
            "byteLength" : 468,
            "byteOffset" : 4187288
        },
        {
            "buffer" : 0,
            "byteLength" : 468,
            "byteOffset" : 4187756
        },
        {
            "buffer" : 0,
            "byteLength" : 312,
            "byteOffset" : 4188224
        },
        {
            "buffer" : 0,
            "byteLength" : 102,
            "byteOffset" : 4188536
        }
    ],
    "buffers" : [
        {
            "byteLength" : 4188640,
            "uri" : "carnager .bin"
        }
    ]
}
