{
    "asset" : {
        "generator" : "Khronos glTF Blender I/O v1.0.5",
        "version" : "2.0"
    },
    "scene" : 0,
    "scenes" : [
        {
            "name" : "Scene",
            "nodes" : [
                0
            ]
        }
    ],
    "nodes" : [
        {
            "mesh" : 0,
            "name" : "Cube",
            "scale" : [
                20.80735206604004,
                20.80735206604004,
                20.80735206604004
            ]
        }
    ],
    "materials" : [
        {
            "doubleSided" : true,
            "name" : "Material",
            "pbrMetallicRoughness" : {
                "baseColorTexture" : {
                    "index" : 0,
                    "texCoord" : 0
                },
                "metallicFactor" : 0,
                "roughnessFactor" : 0.4000000059604645
            }
        }
    ],
    "meshes" : [
        {
            "name" : "Cube",
            "primitives" : [
                {
                    "attributes" : {
                        "POSITION" : 0,
                        "NORMAL" : 1,
                        "TEXCOORD_0" : 2
                    },
                    "indices" : 3,
                    "material" : 0
                }
            ]
        }
    ],
    "textures" : [
        {
            "source" : 0
        }
    ],
    "images" : [
        {
            "mimeType" : "image/png",
            "name" : "hroh2",
            "uri" : "hroh2.png"
        }
    ],
    "accessors" : [
        {
            "bufferView" : 0,
            "componentType" : 5126,
            "count" : 39352,
            "max" : [
                3.2929940223693848,
                5.0124311447143555,
                3.972383499145508
            ],
            "min" : [
                -3.2929937839508057,
                -1.3107796907424927,
                -1.9435362815856934
            ],
            "type" : "VEC3"
        },
        {
            "bufferView" : 1,
            "componentType" : 5126,
            "count" : 39352,
            "type" : "VEC3"
        },
        {
            "bufferView" : 2,
            "componentType" : 5126,
            "count" : 39352,
            "type" : "VEC2"
        },
        {
            "bufferView" : 3,
            "componentType" : 5123,
            "count" : 112647,
            "type" : "SCALAR"
        }
    ],
    "bufferViews" : [
        {
            "buffer" : 0,
            "byteLength" : 472224,
            "byteOffset" : 0
        },
        {
            "buffer" : 0,
            "byteLength" : 472224,
            "byteOffset" : 472224
        },
        {
            "buffer" : 0,
            "byteLength" : 314816,
            "byteOffset" : 944448
        },
        {
            "buffer" : 0,
            "byteLength" : 225294,
            "byteOffset" : 1259264
        }
    ],
    "buffers" : [
        {
            "byteLength" : 1484560,
            "uri" : "hroh.bin"
        }
    ]
}
