{
    "asset" : {
        "generator" : "Khronos glTF Blender I/O v1.0.5",
        "version" : "2.0"
    },
    "scene" : 0,
    "scenes" : [
        {
            "name" : "Scene",
            "nodes" : [
                0,
                1,
                2
            ]
        }
    ],
    "nodes" : [
        {
            "mesh" : 0,
            "name" : "Cube"
        },
        {
            "mesh" : 1,
            "name" : "Plane",
            "translation" : [
                0,
                1.5491880178451538,
                -7.510415554046631
            ]
        },
        {
            "mesh" : 2,
            "name" : "Plane.001",
            "scale" : [
                1.530500054359436,
                1.530500054359436,
                1.530500054359436
            ]
        }
    ],
    "materials" : [
        {
            "doubleSided" : true,
            "name" : "Material.001",
            "normalTexture" : {
                "index" : 0,
                "texCoord" : 0
            },
            "pbrMetallicRoughness" : {
                "baseColorTexture" : {
                    "index" : 1,
                    "texCoord" : 0
                },
                "metallicFactor" : 0,
                "roughnessFactor" : 0.459090918302536
            }
        }
    ],
    "meshes" : [
        {
            "name" : "Cube.001",
            "primitives" : [
                {
                    "attributes" : {
                        "POSITION" : 0,
                        "NORMAL" : 1,
                        "TEXCOORD_0" : 2
                    },
                    "indices" : 3,
                    "material" : 0
                }
            ]
        },
        {
            "name" : "Plane",
            "primitives" : [
                {
                    "attributes" : {
                        "POSITION" : 4,
                        "NORMAL" : 5,
                        "TEXCOORD_0" : 6
                    },
                    "indices" : 7,
                    "material" : 0
                }
            ]
        },
        {
            "name" : "Plane.001",
            "primitives" : [
                {
                    "attributes" : {
                        "POSITION" : 8,
                        "NORMAL" : 9,
                        "TEXCOORD_0" : 10
                    },
                    "indices" : 11,
                    "material" : 0
                }
            ]
        }
    ],
    "textures" : [
        {
            "source" : 0
        },
        {
            "source" : 1
        }
    ],
    "images" : [
        {
            "mimeType" : "image/png",
            "name" : "Normal",
            "uri" : "Normal.png"
        },
        {
            "mimeType" : "image/jpeg",
            "name" : "carbon",
            "uri" : "carbon.jpg"
        }
    ],
    "accessors" : [
        {
            "bufferView" : 0,
            "componentType" : 5126,
            "count" : 12354,
            "max" : [
                7.460489749908447,
                4.2414350509643555,
                11.86474895477295
            ],
            "min" : [
                -7.4604878425598145,
                -1.7858831882476807,
                -11.936960220336914
            ],
            "type" : "VEC3"
        },
        {
            "bufferView" : 1,
            "componentType" : 5126,
            "count" : 12354,
            "type" : "VEC3"
        },
        {
            "bufferView" : 2,
            "componentType" : 5126,
            "count" : 12354,
            "type" : "VEC2"
        },
        {
            "bufferView" : 3,
            "componentType" : 5123,
            "count" : 28494,
            "type" : "SCALAR"
        },
        {
            "bufferView" : 4,
            "componentType" : 5126,
            "count" : 92,
            "max" : [
                2.9963042736053467,
                -0.48625448346138,
                0.7374570369720459
            ],
            "min" : [
                -2.9963042736053467,
                -0.5849131941795349,
                -1.9790395498275757
            ],
            "type" : "VEC3"
        },
        {
            "bufferView" : 5,
            "componentType" : 5126,
            "count" : 92,
            "type" : "VEC3"
        },
        {
            "bufferView" : 6,
            "componentType" : 5126,
            "count" : 92,
            "type" : "VEC2"
        },
        {
            "bufferView" : 7,
            "componentType" : 5123,
            "count" : 156,
            "type" : "SCALAR"
        },
        {
            "bufferView" : 8,
            "componentType" : 5126,
            "count" : 13114,
            "max" : [
                4.79179048538208,
                0.2660483121871948,
                1.4122076034545898
            ],
            "min" : [
                -4.79179048538208,
                -1.022038459777832,
                -1.2253926992416382
            ],
            "type" : "VEC3"
        },
        {
            "bufferView" : 9,
            "componentType" : 5126,
            "count" : 13114,
            "type" : "VEC3"
        },
        {
            "bufferView" : 10,
            "componentType" : 5126,
            "count" : 13114,
            "type" : "VEC2"
        },
        {
            "bufferView" : 11,
            "componentType" : 5123,
            "count" : 24762,
            "type" : "SCALAR"
        }
    ],
    "bufferViews" : [
        {
            "buffer" : 0,
            "byteLength" : 148248,
            "byteOffset" : 0
        },
        {
            "buffer" : 0,
            "byteLength" : 148248,
            "byteOffset" : 148248
        },
        {
            "buffer" : 0,
            "byteLength" : 98832,
            "byteOffset" : 296496
        },
        {
            "buffer" : 0,
            "byteLength" : 56988,
            "byteOffset" : 395328
        },
        {
            "buffer" : 0,
            "byteLength" : 1104,
            "byteOffset" : 452316
        },
        {
            "buffer" : 0,
            "byteLength" : 1104,
            "byteOffset" : 453420
        },
        {
            "buffer" : 0,
            "byteLength" : 736,
            "byteOffset" : 454524
        },
        {
            "buffer" : 0,
            "byteLength" : 312,
            "byteOffset" : 455260
        },
        {
            "buffer" : 0,
            "byteLength" : 157368,
            "byteOffset" : 455572
        },
        {
            "buffer" : 0,
            "byteLength" : 157368,
            "byteOffset" : 612940
        },
        {
            "buffer" : 0,
            "byteLength" : 104912,
            "byteOffset" : 770308
        },
        {
            "buffer" : 0,
            "byteLength" : 49524,
            "byteOffset" : 875220
        }
    ],
    "buffers" : [
        {
            "byteLength" : 924744,
            "uri" : "hovercopter.bin"
        }
    ]
}
