{
    "asset" : {
        "generator" : "Khronos glTF Blender I/O v1.0.5",
        "version" : "2.0"
    },
    "scene" : 0,
    "scenes" : [
        {
            "name" : "Scene",
            "nodes" : [
                0
            ]
        }
    ],
    "nodes" : [
        {
            "mesh" : 0,
            "name" : "Circle"
        }
    ],
    "materials" : [
        {
            "doubleSided" : true,
            "name" : "Material.001",
            "pbrMetallicRoughness" : {
                "baseColorTexture" : {
                    "index" : 0,
                    "texCoord" : 0
                },
                "metallicFactor" : 0,
                "roughnessFactor" : 0.5
            }
        },
        {
            "doubleSided" : true,
            "name" : "Material.002",
            "pbrMetallicRoughness" : {
                "baseColorTexture" : {
                    "index" : 1,
                    "texCoord" : 0
                },
                "metallicFactor" : 0,
                "roughnessFactor" : 0.5
            }
        },
        {
            "doubleSided" : true,
            "name" : "Material.003",
            "pbrMetallicRoughness" : {
                "baseColorTexture" : {
                    "index" : 2,
                    "texCoord" : 0
                },
                "metallicFactor" : 0,
                "roughnessFactor" : 0.5
            }
        },
        {
            "doubleSided" : true,
            "name" : "Material.004",
            "pbrMetallicRoughness" : {
                "baseColorTexture" : {
                    "index" : 3,
                    "texCoord" : 0
                },
                "metallicFactor" : 0,
                "roughnessFactor" : 0.5
            }
        },
        {
            "doubleSided" : true,
            "name" : "Material",
            "pbrMetallicRoughness" : {
                "baseColorFactor" : [
                    0,
                    0,
                    0,
                    1
                ],
                "metallicFactor" : 0,
                "roughnessFactor" : 0.5
            }
        }
    ],
    "meshes" : [
        {
            "name" : "Circle",
            "primitives" : [
                {
                    "attributes" : {
                        "POSITION" : 0,
                        "NORMAL" : 1,
                        "TEXCOORD_0" : 2,
                        "TEXCOORD_1" : 3
                    },
                    "indices" : 4,
                    "material" : 0
                },
                {
                    "attributes" : {
                        "POSITION" : 5,
                        "NORMAL" : 6,
                        "TEXCOORD_0" : 7,
                        "TEXCOORD_1" : 8
                    },
                    "indices" : 9,
                    "material" : 1
                },
                {
                    "attributes" : {
                        "POSITION" : 10,
                        "NORMAL" : 11,
                        "TEXCOORD_0" : 12,
                        "TEXCOORD_1" : 13
                    },
                    "indices" : 14,
                    "material" : 2
                },
                {
                    "attributes" : {
                        "POSITION" : 15,
                        "NORMAL" : 16,
                        "TEXCOORD_0" : 17,
                        "TEXCOORD_1" : 18
                    },
                    "indices" : 19,
                    "material" : 3
                },
                {
                    "attributes" : {
                        "POSITION" : 20,
                        "NORMAL" : 21,
                        "TEXCOORD_0" : 22,
                        "TEXCOORD_1" : 23
                    },
                    "indices" : 24,
                    "material" : 4
                }
            ]
        }
    ],
    "textures" : [
        {
            "source" : 0
        },
        {
            "source" : 1
        },
        {
            "source" : 2
        },
        {
            "source" : 3
        }
    ],
    "images" : [
        {
            "mimeType" : "image/jpeg",
            "name" : "1519463904_textures-camouflage-nv-17",
            "uri" : "1519463904_textures-camouflage-nv-17.jpg"
        },
        {
            "mimeType" : "image/jpeg",
            "name" : "f2cbfce52c1b510d688d6070f927c1e2",
            "uri" : "f2cbfce52c1b510d688d6070f927c1e2.jpg"
        },
        {
            "mimeType" : "image/jpeg",
            "name" : "59754984_874cb8666b_b",
            "uri" : "59754984_874cb8666b_b.jpg"
        },
        {
            "mimeType" : "image/jpeg",
            "name" : "\u043c\u0435\u0442\u0442\u0430\u043b_318",
            "uri" : "\u043c\u0435\u0442\u0442\u0430\u043b_318.jpg"
        }
    ],
    "accessors" : [
        {
            "bufferView" : 0,
            "componentType" : 5126,
            "count" : 1792,
            "max" : [
                5.303705215454102,
                2.7499749660491943,
                5.008787631988525
            ],
            "min" : [
                -5.303705215454102,
                -0.9567579627037048,
                -9.201197624206543
            ],
            "type" : "VEC3"
        },
        {
            "bufferView" : 1,
            "componentType" : 5126,
            "count" : 1792,
            "type" : "VEC3"
        },
        {
            "bufferView" : 2,
            "componentType" : 5126,
            "count" : 1792,
            "type" : "VEC2"
        },
        {
            "bufferView" : 3,
            "componentType" : 5126,
            "count" : 1792,
            "type" : "VEC2"
        },
        {
            "bufferView" : 4,
            "componentType" : 5123,
            "count" : 2742,
            "type" : "SCALAR"
        },
        {
            "bufferView" : 5,
            "componentType" : 5126,
            "count" : 160,
            "max" : [
                0.4534716308116913,
                0.3997139036655426,
                6.210370063781738
            ],
            "min" : [
                -0.42352384328842163,
                -0.4772421419620514,
                4.552475929260254
            ],
            "type" : "VEC3"
        },
        {
            "bufferView" : 6,
            "componentType" : 5126,
            "count" : 160,
            "type" : "VEC3"
        },
        {
            "bufferView" : 7,
            "componentType" : 5126,
            "count" : 160,
            "type" : "VEC2"
        },
        {
            "bufferView" : 8,
            "componentType" : 5126,
            "count" : 160,
            "type" : "VEC2"
        },
        {
            "bufferView" : 9,
            "componentType" : 5123,
            "count" : 282,
            "type" : "SCALAR"
        },
        {
            "bufferView" : 10,
            "componentType" : 5126,
            "count" : 378,
            "max" : [
                0.4601241946220398,
                1.3118882179260254,
                2.861311197280884
            ],
            "min" : [
                -0.46009254455566406,
                0.5890111327171326,
                0.6763985753059387
            ],
            "type" : "VEC3"
        },
        {
            "bufferView" : 11,
            "componentType" : 5126,
            "count" : 378,
            "type" : "VEC3"
        },
        {
            "bufferView" : 12,
            "componentType" : 5126,
            "count" : 378,
            "type" : "VEC2"
        },
        {
            "bufferView" : 13,
            "componentType" : 5126,
            "count" : 378,
            "type" : "VEC2"
        },
        {
            "bufferView" : 14,
            "componentType" : 5123,
            "count" : 684,
            "type" : "SCALAR"
        },
        {
            "bufferView" : 15,
            "componentType" : 5126,
            "count" : 398,
            "max" : [
                0.4519737958908081,
                1.270763635635376,
                2.861311197280884
            ],
            "min" : [
                -0.4512694180011749,
                0.5890111327171326,
                0.6763985753059387
            ],
            "type" : "VEC3"
        },
        {
            "bufferView" : 16,
            "componentType" : 5126,
            "count" : 398,
            "type" : "VEC3"
        },
        {
            "bufferView" : 17,
            "componentType" : 5126,
            "count" : 398,
            "type" : "VEC2"
        },
        {
            "bufferView" : 18,
            "componentType" : 5126,
            "count" : 398,
            "type" : "VEC2"
        },
        {
            "bufferView" : 19,
            "componentType" : 5123,
            "count" : 672,
            "type" : "SCALAR"
        },
        {
            "bufferView" : 20,
            "componentType" : 5126,
            "count" : 160,
            "max" : [
                0.6689468622207642,
                0.7406724095344543,
                -5.347591876983643
            ],
            "min" : [
                -0.6689470410346985,
                -0.5971611142158508,
                -7.556397914886475
            ],
            "type" : "VEC3"
        },
        {
            "bufferView" : 21,
            "componentType" : 5126,
            "count" : 160,
            "type" : "VEC3"
        },
        {
            "bufferView" : 22,
            "componentType" : 5126,
            "count" : 160,
            "type" : "VEC2"
        },
        {
            "bufferView" : 23,
            "componentType" : 5126,
            "count" : 160,
            "type" : "VEC2"
        },
        {
            "bufferView" : 24,
            "componentType" : 5123,
            "count" : 282,
            "type" : "SCALAR"
        }
    ],
    "bufferViews" : [
        {
            "buffer" : 0,
            "byteLength" : 21504,
            "byteOffset" : 0
        },
        {
            "buffer" : 0,
            "byteLength" : 21504,
            "byteOffset" : 21504
        },
        {
            "buffer" : 0,
            "byteLength" : 14336,
            "byteOffset" : 43008
        },
        {
            "buffer" : 0,
            "byteLength" : 14336,
            "byteOffset" : 57344
        },
        {
            "buffer" : 0,
            "byteLength" : 5484,
            "byteOffset" : 71680
        },
        {
            "buffer" : 0,
            "byteLength" : 1920,
            "byteOffset" : 77164
        },
        {
            "buffer" : 0,
            "byteLength" : 1920,
            "byteOffset" : 79084
        },
        {
            "buffer" : 0,
            "byteLength" : 1280,
            "byteOffset" : 81004
        },
        {
            "buffer" : 0,
            "byteLength" : 1280,
            "byteOffset" : 82284
        },
        {
            "buffer" : 0,
            "byteLength" : 564,
            "byteOffset" : 83564
        },
        {
            "buffer" : 0,
            "byteLength" : 4536,
            "byteOffset" : 84128
        },
        {
            "buffer" : 0,
            "byteLength" : 4536,
            "byteOffset" : 88664
        },
        {
            "buffer" : 0,
            "byteLength" : 3024,
            "byteOffset" : 93200
        },
        {
            "buffer" : 0,
            "byteLength" : 3024,
            "byteOffset" : 96224
        },
        {
            "buffer" : 0,
            "byteLength" : 1368,
            "byteOffset" : 99248
        },
        {
            "buffer" : 0,
            "byteLength" : 4776,
            "byteOffset" : 100616
        },
        {
            "buffer" : 0,
            "byteLength" : 4776,
            "byteOffset" : 105392
        },
        {
            "buffer" : 0,
            "byteLength" : 3184,
            "byteOffset" : 110168
        },
        {
            "buffer" : 0,
            "byteLength" : 3184,
            "byteOffset" : 113352
        },
        {
            "buffer" : 0,
            "byteLength" : 1344,
            "byteOffset" : 116536
        },
        {
            "buffer" : 0,
            "byteLength" : 1920,
            "byteOffset" : 117880
        },
        {
            "buffer" : 0,
            "byteLength" : 1920,
            "byteOffset" : 119800
        },
        {
            "buffer" : 0,
            "byteLength" : 1280,
            "byteOffset" : 121720
        },
        {
            "buffer" : 0,
            "byteLength" : 1280,
            "byteOffset" : 123000
        },
        {
            "buffer" : 0,
            "byteLength" : 564,
            "byteOffset" : 124280
        }
    ],
    "buffers" : [
        {
            "byteLength" : 124844,
            "uri" : "mig-21.bin"
        }
    ]
}
