{
    "asset" : {
        "generator" : "Khronos glTF Blender I/O v1.0.5",
        "version" : "2.0"
    },
    "scene" : 0,
    "scenes" : [
        {
            "name" : "Scene",
            "nodes" : [
                0
            ]
        }
    ],
    "nodes" : [
        {
            "mesh" : 0,
            "name" : "Cube",
            "translation" : [
                11.159173011779785,
                0,
                0
            ]
        }
    ],
    "materials" : [
        {
            "doubleSided" : true,
            "name" : "Material",
            "pbrMetallicRoughness" : {
                "baseColorFactor" : [
                    0.800000011920929,
                    0.800000011920929,
                    0.800000011920929,
                    1
                ],
                "metallicFactor" : 0,
                "roughnessFactor" : 0.4000000059604645
            }
        }
    ],
    "meshes" : [
        {
            "name" : "Cube",
            "primitives" : [
                {
                    "attributes" : {
                        "POSITION" : 0,
                        "NORMAL" : 1,
                        "TEXCOORD_0" : 2
                    },
                    "indices" : 3,
                    "material" : 0
                },
                {
                    "attributes" : {
                        "POSITION" : 4,
                        "NORMAL" : 5,
                        "TEXCOORD_0" : 6
                    },
                    "indices" : 7,
                    "material" : 0
                },
                {
                    "attributes" : {
                        "POSITION" : 8,
                        "NORMAL" : 9,
                        "TEXCOORD_0" : 10
                    },
                    "indices" : 11,
                    "material" : 0
                }
            ]
        }
    ],
    "accessors" : [
        {
            "bufferView" : 0,
            "componentType" : 5126,
            "count" : 65534,
            "max" : [
                -9.92994213104248,
                1,
                1.25437331199646
            ],
            "min" : [
                -12.418051719665527,
                -1,
                -1.3062407970428467
            ],
            "type" : "VEC3"
        },
        {
            "bufferView" : 1,
            "componentType" : 5126,
            "count" : 65534,
            "type" : "VEC3"
        },
        {
            "bufferView" : 2,
            "componentType" : 5126,
            "count" : 65534,
            "type" : "VEC2"
        },
        {
            "bufferView" : 3,
            "componentType" : 5123,
            "count" : 109614,
            "type" : "SCALAR"
        },
        {
            "bufferView" : 4,
            "componentType" : 5126,
            "count" : 6799,
            "max" : [
                -10.341136932373047,
                0.8776860237121582,
                1.2843918800354004
            ],
            "min" : [
                -11.979722023010254,
                -0.8690351247787476,
                0.9630972146987915
            ],
            "type" : "VEC3"
        },
        {
            "bufferView" : 5,
            "componentType" : 5126,
            "count" : 6799,
            "type" : "VEC3"
        },
        {
            "bufferView" : 6,
            "componentType" : 5126,
            "count" : 6799,
            "type" : "VEC2"
        },
        {
            "bufferView" : 7,
            "componentType" : 5123,
            "count" : 11241,
            "type" : "SCALAR"
        },
        {
            "bufferView" : 8,
            "componentType" : 5126,
            "count" : 5,
            "max" : [
                -11.661832809448242,
                0.8227938413619995,
                1.2186925411224365
            ],
            "min" : [
                -11.890620231628418,
                0.6720530986785889,
                1.217975378036499
            ],
            "type" : "VEC3"
        },
        {
            "bufferView" : 9,
            "componentType" : 5126,
            "count" : 5,
            "type" : "VEC3"
        },
        {
            "bufferView" : 10,
            "componentType" : 5126,
            "count" : 5,
            "type" : "VEC2"
        },
        {
            "bufferView" : 11,
            "componentType" : 5123,
            "count" : 9,
            "type" : "SCALAR"
        }
    ],
    "bufferViews" : [
        {
            "buffer" : 0,
            "byteLength" : 786408,
            "byteOffset" : 0
        },
        {
            "buffer" : 0,
            "byteLength" : 786408,
            "byteOffset" : 786408
        },
        {
            "buffer" : 0,
            "byteLength" : 524272,
            "byteOffset" : 1572816
        },
        {
            "buffer" : 0,
            "byteLength" : 219228,
            "byteOffset" : 2097088
        },
        {
            "buffer" : 0,
            "byteLength" : 81588,
            "byteOffset" : 2316316
        },
        {
            "buffer" : 0,
            "byteLength" : 81588,
            "byteOffset" : 2397904
        },
        {
            "buffer" : 0,
            "byteLength" : 54392,
            "byteOffset" : 2479492
        },
        {
            "buffer" : 0,
            "byteLength" : 22482,
            "byteOffset" : 2533884
        },
        {
            "buffer" : 0,
            "byteLength" : 60,
            "byteOffset" : 2556368
        },
        {
            "buffer" : 0,
            "byteLength" : 60,
            "byteOffset" : 2556428
        },
        {
            "buffer" : 0,
            "byteLength" : 40,
            "byteOffset" : 2556488
        },
        {
            "buffer" : 0,
            "byteLength" : 18,
            "byteOffset" : 2556528
        }
    ],
    "buffers" : [
        {
            "byteLength" : 2556548,
            "uri" : "wep-pa.bin"
        }
    ]
}
