{
    "asset" : {
        "generator" : "Khronos glTF Blender I/O v1.0.5",
        "version" : "2.0"
    },
    "scene" : 0,
    "scenes" : [
        {
            "name" : "Scene",
            "nodes" : [
                0,
                1,
                2
            ]
        }
    ],
    "nodes" : [
        {
            "mesh" : 0,
            "name" : "Cube",
            "translation" : [
                16.256792068481445,
                0,
                0
            ]
        },
        {
            "mesh" : 1,
            "name" : "Cylinder",
            "rotation" : [
                0.7071068286895752,
                0,
                0,
                0.7071067094802856
            ]
        },
        {
            "mesh" : 2,
            "name" : "Cylinder.001",
            "rotation" : [
                0.7071068286895752,
                0,
                0,
                0.7071067094802856
            ]
        }
    ],
    "materials" : [
        {
            "doubleSided" : true,
            "name" : "Material",
            "pbrMetallicRoughness" : {
                "baseColorFactor" : [
                    0.800000011920929,
                    0.800000011920929,
                    0.800000011920929,
                    1
                ],
                "metallicFactor" : 0,
                "roughnessFactor" : 0.4000000059604645
            }
        },
        {
            "doubleSided" : true,
            "name" : "None",
            "pbrMetallicRoughness" : {
                "baseColorFactor" : [
                    0.800000011920929,
                    0.800000011920929,
                    0.800000011920929,
                    1
                ],
                "metallicFactor" : 0,
                "roughnessFactor" : 0.2546440064907074
            }
        }
    ],
    "meshes" : [
        {
            "name" : "Cube",
            "primitives" : [
                {
                    "attributes" : {
                        "POSITION" : 0,
                        "NORMAL" : 1,
                        "TEXCOORD_0" : 2
                    },
                    "indices" : 3,
                    "material" : 0
                }
            ]
        },
        {
            "name" : "Cylinder",
            "primitives" : [
                {
                    "attributes" : {
                        "POSITION" : 4,
                        "NORMAL" : 5,
                        "TEXCOORD_0" : 6
                    },
                    "indices" : 7,
                    "material" : 1
                }
            ]
        },
        {
            "name" : "Cylinder.001",
            "primitives" : [
                {
                    "attributes" : {
                        "POSITION" : 8,
                        "NORMAL" : 9,
                        "TEXCOORD_0" : 10
                    },
                    "indices" : 11,
                    "material" : 1
                },
                {
                    "attributes" : {
                        "POSITION" : 12,
                        "NORMAL" : 13,
                        "TEXCOORD_0" : 14
                    },
                    "indices" : 15,
                    "material" : 1
                },
                {
                    "attributes" : {
                        "POSITION" : 16,
                        "NORMAL" : 17,
                        "TEXCOORD_0" : 18
                    },
                    "indices" : 19,
                    "material" : 1
                },
                {
                    "attributes" : {
                        "POSITION" : 20,
                        "NORMAL" : 21,
                        "TEXCOORD_0" : 22
                    },
                    "indices" : 23,
                    "material" : 1
                }
            ]
        }
    ],
    "accessors" : [
        {
            "bufferView" : 0,
            "componentType" : 5126,
            "count" : 21714,
            "max" : [
                -15.10312271118164,
                0.8951219916343689,
                1.1592233180999756
            ],
            "min" : [
                -17.420326232910156,
                -0.9258776307106018,
                -1.1723651885986328
            ],
            "type" : "VEC3"
        },
        {
            "bufferView" : 1,
            "componentType" : 5126,
            "count" : 21714,
            "type" : "VEC3"
        },
        {
            "bufferView" : 2,
            "componentType" : 5126,
            "count" : 21714,
            "type" : "VEC2"
        },
        {
            "bufferView" : 3,
            "componentType" : 5123,
            "count" : 35256,
            "type" : "SCALAR"
        },
        {
            "bufferView" : 4,
            "componentType" : 5126,
            "count" : 50,
            "max" : [
                1,
                1,
                1
            ],
            "min" : [
                -1,
                -1,
                -1
            ],
            "type" : "VEC3"
        },
        {
            "bufferView" : 5,
            "componentType" : 5126,
            "count" : 50,
            "type" : "VEC3"
        },
        {
            "bufferView" : 6,
            "componentType" : 5126,
            "count" : 50,
            "type" : "VEC2"
        },
        {
            "bufferView" : 7,
            "componentType" : 5123,
            "count" : 84,
            "type" : "SCALAR"
        },
        {
            "bufferView" : 8,
            "componentType" : 5126,
            "count" : 65535,
            "max" : [
                0.8662182688713074,
                0.8827718496322632,
                -0.5974135398864746
            ],
            "min" : [
                -0.8715776205062866,
                -0.2516162395477295,
                -0.9876611828804016
            ],
            "type" : "VEC3"
        },
        {
            "bufferView" : 9,
            "componentType" : 5126,
            "count" : 65535,
            "type" : "VEC3"
        },
        {
            "bufferView" : 10,
            "componentType" : 5126,
            "count" : 65535,
            "type" : "VEC2"
        },
        {
            "bufferView" : 11,
            "componentType" : 5123,
            "count" : 113637,
            "type" : "SCALAR"
        },
        {
            "bufferView" : 12,
            "componentType" : 5126,
            "count" : 65533,
            "max" : [
                0.6054820418357849,
                0.305944561958313,
                -0.5974134206771851
            ],
            "min" : [
                -0.8547495007514954,
                -0.8302817344665527,
                -0.9876610636711121
            ],
            "type" : "VEC3"
        },
        {
            "bufferView" : 13,
            "componentType" : 5126,
            "count" : 65533,
            "type" : "VEC3"
        },
        {
            "bufferView" : 14,
            "componentType" : 5126,
            "count" : 65533,
            "type" : "VEC2"
        },
        {
            "bufferView" : 15,
            "componentType" : 5123,
            "count" : 113601,
            "type" : "SCALAR"
        },
        {
            "bufferView" : 16,
            "componentType" : 5126,
            "count" : 41944,
            "max" : [
                0.8724195957183838,
                -0.27272093296051025,
                -0.5974134206771851
            ],
            "min" : [
                -0.791294515132904,
                -0.8302817344665527,
                -0.9876609444618225
            ],
            "type" : "VEC3"
        },
        {
            "bufferView" : 17,
            "componentType" : 5126,
            "count" : 41944,
            "type" : "VEC3"
        },
        {
            "bufferView" : 18,
            "componentType" : 5126,
            "count" : 41944,
            "type" : "VEC2"
        },
        {
            "bufferView" : 19,
            "componentType" : 5123,
            "count" : 72774,
            "type" : "SCALAR"
        },
        {
            "bufferView" : 20,
            "componentType" : 5126,
            "count" : 8,
            "max" : [
                0.47270435094833374,
                0.19691234827041626,
                -0.5974135398864746
            ],
            "min" : [
                -0.791294515132904,
                -0.47611379623413086,
                -0.9286020398139954
            ],
            "type" : "VEC3"
        },
        {
            "bufferView" : 21,
            "componentType" : 5126,
            "count" : 8,
            "type" : "VEC3"
        },
        {
            "bufferView" : 22,
            "componentType" : 5126,
            "count" : 8,
            "type" : "VEC2"
        },
        {
            "bufferView" : 23,
            "componentType" : 5123,
            "count" : 12,
            "type" : "SCALAR"
        }
    ],
    "bufferViews" : [
        {
            "buffer" : 0,
            "byteLength" : 260568,
            "byteOffset" : 0
        },
        {
            "buffer" : 0,
            "byteLength" : 260568,
            "byteOffset" : 260568
        },
        {
            "buffer" : 0,
            "byteLength" : 173712,
            "byteOffset" : 521136
        },
        {
            "buffer" : 0,
            "byteLength" : 70512,
            "byteOffset" : 694848
        },
        {
            "buffer" : 0,
            "byteLength" : 600,
            "byteOffset" : 765360
        },
        {
            "buffer" : 0,
            "byteLength" : 600,
            "byteOffset" : 765960
        },
        {
            "buffer" : 0,
            "byteLength" : 400,
            "byteOffset" : 766560
        },
        {
            "buffer" : 0,
            "byteLength" : 168,
            "byteOffset" : 766960
        },
        {
            "buffer" : 0,
            "byteLength" : 786420,
            "byteOffset" : 767128
        },
        {
            "buffer" : 0,
            "byteLength" : 786420,
            "byteOffset" : 1553548
        },
        {
            "buffer" : 0,
            "byteLength" : 524280,
            "byteOffset" : 2339968
        },
        {
            "buffer" : 0,
            "byteLength" : 227274,
            "byteOffset" : 2864248
        },
        {
            "buffer" : 0,
            "byteLength" : 786396,
            "byteOffset" : 3091524
        },
        {
            "buffer" : 0,
            "byteLength" : 786396,
            "byteOffset" : 3877920
        },
        {
            "buffer" : 0,
            "byteLength" : 524264,
            "byteOffset" : 4664316
        },
        {
            "buffer" : 0,
            "byteLength" : 227202,
            "byteOffset" : 5188580
        },
        {
            "buffer" : 0,
            "byteLength" : 503328,
            "byteOffset" : 5415784
        },
        {
            "buffer" : 0,
            "byteLength" : 503328,
            "byteOffset" : 5919112
        },
        {
            "buffer" : 0,
            "byteLength" : 335552,
            "byteOffset" : 6422440
        },
        {
            "buffer" : 0,
            "byteLength" : 145548,
            "byteOffset" : 6757992
        },
        {
            "buffer" : 0,
            "byteLength" : 96,
            "byteOffset" : 6903540
        },
        {
            "buffer" : 0,
            "byteLength" : 96,
            "byteOffset" : 6903636
        },
        {
            "buffer" : 0,
            "byteLength" : 64,
            "byteOffset" : 6903732
        },
        {
            "buffer" : 0,
            "byteLength" : 24,
            "byteOffset" : 6903796
        }
    ],
    "buffers" : [
        {
            "byteLength" : 6903820,
            "uri" : "wep-ca.bin"
        }
    ]
}
