{
  "accessors": [
    {
      "bufferView": 2,
      "componentType": 5126,
      "count": 65532,
      "max": [
        9.639299392700195,
        10.122441291809082,
        17.74241065979004
      ],
      "min": [
        -14.101593017578125,
        -9.107321739196777,
        -0.20980262756347656
      ],
      "type": "VEC3"
    },
    {
      "bufferView": 2,
      "byteOffset": 786384,
      "componentType": 5126,
      "count": 65532,
      "max": [
        0.9999963641166687,
        0.9999964237213135,
        0.9999988079071045
      ],
      "min": [
        -0.9999998807907104,
        -0.9999978542327881,
        -0.9999942183494568
      ],
      "type": "VEC3"
    },
    {
      "bufferView": 1,
      "componentType": 5126,
      "count": 65532,
      "max": [
        0.9993107318878174,
        0.9786229729652405
      ],
      "min": [
        0.0001220703125,
        0.00036801828537136316
      ],
      "type": "VEC2"
    },
    {
      "bufferView": 0,
      "componentType": 5125,
      "count": 342021,
      "type": "SCALAR"
    },
    {
      "bufferView": 2,
      "byteOffset": 1572768,
      "componentType": 5126,
      "count": 36861,
      "max": [
        9.646045684814453,
        10.041548728942871,
        17.728919982910156
      ],
      "min": [
        -14.122865676879883,
        -9.222009658813477,
        -0.14051437377929688
      ],
      "type": "VEC3"
    },
    {
      "bufferView": 2,
      "byteOffset": 2015100,
      "componentType": 5126,
      "count": 36861,
      "max": [
        0.9999948143959045,
        0.9999998211860657,
        0.9999988079071045
      ],
      "min": [
        -0.9999980330467224,
        -0.9999922513961792,
        -0.9999969601631165
      ],
      "type": "VEC3"
    },
    {
      "bufferView": 1,
      "byteOffset": 524256,
      "componentType": 5126,
      "count": 36861,
      "max": [
        0.9990966320037842,
        0.9786375761032104
      ],
      "min": [
        0.00030019599944353104,
        0.0003683759132400155
      ],
      "type": "VEC2"
    },
    {
      "bufferView": 0,
      "byteOffset": 1368084,
      "componentType": 5125,
      "count": 166515,
      "type": "SCALAR"
    }
  ],
  "asset": {
    "extras": {
      "author": "Gulag.cz (https://sketchfab.com/gulag.cz)",
      "license": "CC-BY-4.0 (http://creativecommons.org/licenses/by/4.0/)",
      "source": "https://sketchfab.com/3d-models/vezensky-plechovy-hrnek-prison-tin-mug-34cb4a268ef64a5983a8ed65a9011090",
      "title": "Vězeňský Plechový hrnek / Prison Tin mug"
    },
    "generator": "Sketchfab-12.59.0",
    "version": "2.0"
  },
  "bufferViews": [
    {
      "buffer": 0,
      "byteLength": 2034144,
      "name": "floatBufferViews",
      "target": 34963
    },
    {
      "buffer": 0,
      "byteLength": 819144,
      "byteOffset": 2034144,
      "byteStride": 8,
      "name": "floatBufferViews",
      "target": 34962
    },
    {
      "buffer": 0,
      "byteLength": 2457432,
      "byteOffset": 2853288,
      "byteStride": 12,
      "name": "floatBufferViews",
      "target": 34962
    }
  ],
  "buffers": [
    {
      "byteLength": 5310720,
      "uri": "scene.bin"
    }
  ],
  "extensionsUsed": [
    "KHR_materials_unlit"
  ],
  "images": [
    {
      "uri": "textures/g-mug_u1_v1_baseColor.jpeg"
    }
  ],
  "materials": [
    {
      "doubleSided": true,
      "extensions": {
        "KHR_materials_unlit": {}
      },
      "name": "g-mug_u1_v1",
      "pbrMetallicRoughness": {
        "baseColorTexture": {
          "index": 0
        },
        "metallicFactor": 0.0
      }
    }
  ],
  "meshes": [
    {
      "name": "g-mug_g-mug_u1_v1_0",
      "primitives": [
        {
          "attributes": {
            "NORMAL": 1,
            "POSITION": 0,
            "TEXCOORD_0": 2
          },
          "indices": 3,
          "material": 0,
          "mode": 4
        }
      ]
    },
    {
      "name": "g-mug_g-mug_u1_v1_0",
      "primitives": [
        {
          "attributes": {
            "NORMAL": 5,
            "POSITION": 4,
            "TEXCOORD_0": 6
          },
          "indices": 7,
          "material": 0,
          "mode": 4
        }
      ]
    }
  ],
  "nodes": [
    {
      "children": [
        1
      ],
      "matrix": [
        0.0055555556900799274,
        0.0,
        0.0,
        0.0,
        0.0,
        1.2335811683428072e-18,
        -0.0055555556900799274,
        0.0,
        0.0,
        0.0055555556900799274,
        1.2335811683428072e-18,
        0.0,
        0.0,
        0.0,
        0.0,
        1.0
      ],
      "name": "Sketchfab_model"
    },
    {
      "children": [
        2
      ],
      "matrix": [
        0.009999999776482582,
        0.0,
        0.0,
        0.0,
        0.0,
        0.0,
        0.009999999776482582,
        0.0,
        0.0,
        -0.009999999776482582,
        0.0,
        0.0,
        0.0,
        0.0,
        0.0,
        1.0
      ],
      "name": "g-mug.fbx"
    },
    {
      "children": [
        3
      ],
      "name": "RootNode"
    },
    {
      "children": [
        4,
        5
      ],
      "matrix": [
        7.549789959870878e-06,
        1.1102230246251565e-14,
        99.99999999999972,
        0.0,
        99.99999999999962,
        -4.371139006309477e-06,
        -7.549789954319763e-06,
        0.0,
        4.371139006309477e-06,
        99.99999999999991,
        -3.552713678800501e-13,
        0.0,
        0.0,
        0.0,
        0.0,
        1.0
      ],
      "name": "g-mug"
    },
    {
      "mesh": 0,
      "name": "g-mug_g-mug_u1_v1_0"
    },
    {
      "mesh": 1,
      "name": "g-mug_g-mug_u1_v1_0"
    }
  ],
  "samplers": [
    {
      "magFilter": 9729,
      "minFilter": 9987,
      "wrapS": 10497,
      "wrapT": 10497
    }
  ],
  "scene": 0,
  "scenes": [
    {
      "name": "Sketchfab_Scene",
      "nodes": [
        0
      ]
    }
  ],
  "textures": [
    {
      "sampler": 0,
      "source": 0
    }
  ]
}
