{
  "accessors": [
    {
      "bufferView": 2,
      "componentType": 5126,
      "count": 16,
      "max": [
        148.51400756835938,
        80.687103271484375,
        171.22000122070312
      ],
      "min": [
        124.57199859619141,
        57.333499908447266,
        161.11399841308594
      ],
      "type": "VEC3"
    },
    {
      "bufferView": 2,
      "byteOffset": 192,
      "componentType": 5126,
      "count": 16,
      "max": [
        0.67356956005096436,
        0.66218459606170654,
        0.32835277915000916
      ],
      "min": [
        -0.67356956005096436,
        -0.66218459606170654,
        -0.32835277915000916
      ],
      "type": "VEC3"
    },
    {
      "bufferView": 3,
      "componentType": 5126,
      "count": 16,
      "max": [
        0.70161885023117065,
        0.71319621801376343,
        0.69567865133285522,
        1
      ],
      "min": [
        -0.72465974092483521,
        -0.71318155527114868,
        -0.66109263896942139,
        1
      ],
      "type": "VEC4"
    },
    {
      "bufferView": 0,
      "componentType": 5125,
      "count": 36,
      "max": [
        15
      ],
      "min": [
        0
      ],
      "type": "SCALAR"
    },
    {
      "bufferView": 2,
      "byteOffset": 384,
      "componentType": 5126,
      "count": 4238,
      "max": [
        164.44000244140625,
        167.47700500488281,
        227.22300720214844
      ],
      "min": [
        2.8301498889923096,
        5.3011798858642578,
        149.71400451660156
      ],
      "type": "VEC3"
    },
    {
      "bufferView": 2,
      "byteOffset": 51240,
      "componentType": 5126,
      "count": 4238,
      "max": [
        0.99892938137054443,
        0.98715049028396606,
        0.99978101253509521
      ],
      "min": [
        -0.99856287240982056,
        -0.99821901321411133,
        -0.59675967693328857
      ],
      "type": "VEC3"
    },
    {
      "bufferView": 3,
      "byteOffset": 256,
      "componentType": 5126,
      "count": 4238,
      "max": [
        0.99930745363235474,
        0.99910217523574829,
        0.99920600652694702,
        1
      ],
      "min": [
        -0.99762213230133057,
        -0.99734044075012207,
        -0.99964487552642822,
        -1
      ],
      "type": "VEC4"
    },
    {
      "bufferView": 1,
      "componentType": 5126,
      "count": 4238,
      "max": [
        -31.944999694824219,
        2.0218000411987305
      ],
      "min": [
        -32.997501373291016,
        1.0021899938583374
      ],
      "type": "VEC2"
    },
    {
      "bufferView": 0,
      "byteOffset": 144,
      "componentType": 5125,
      "count": 12225,
      "max": [
        4237
      ],
      "min": [
        0
      ],
      "type": "SCALAR"
    },
    {
      "bufferView": 2,
      "byteOffset": 102096,
      "componentType": 5126,
      "count": 4238,
      "max": [
        188.2760009765625,
        173.88200378417969,
        230.55000305175781
      ],
      "min": [
        0,
        23.74220085144043,
        153.01400756835938
      ],
      "type": "VEC3"
    },
    {
      "bufferView": 2,
      "byteOffset": 152952,
      "componentType": 5126,
      "count": 4238,
      "max": [
        0.99757325649261475,
        0.99580323696136475,
        0.99988478422164917
      ],
      "min": [
        -0.99477458000183105,
        -0.99845647811889648,
        -0.75200468301773071
      ],
      "type": "VEC3"
    },
    {
      "bufferView": 3,
      "byteOffset": 68064,
      "componentType": 5126,
      "count": 4238,
      "max": [
        0.99974262714385986,
        0.99806123971939087,
        0.99914336204528809,
        1
      ],
      "min": [
        -0.99686920642852783,
        -0.99953198432922363,
        -0.99960839748382568,
        -1
      ],
      "type": "VEC4"
    },
    {
      "bufferView": 1,
      "byteOffset": 33904,
      "componentType": 5126,
      "count": 4238,
      "max": [
        -31.944999694824219,
        2.0218000411987305
      ],
      "min": [
        -32.997501373291016,
        1.0021899938583374
      ],
      "type": "VEC2"
    },
    {
      "bufferView": 0,
      "byteOffset": 49044,
      "componentType": 5125,
      "count": 12225,
      "max": [
        4237
      ],
      "min": [
        0
      ],
      "type": "SCALAR"
    },
    {
      "bufferView": 2,
      "byteOffset": 203808,
      "componentType": 5126,
      "count": 4238,
      "max": [
        162.9429931640625,
        230.07699584960938,
        217.28399658203125
      ],
      "min": [
        28.984699249267578,
        0,
        142.62199401855469
      ],
      "type": "VEC3"
    },
    {
      "bufferView": 2,
      "byteOffset": 254664,
      "componentType": 5126,
      "count": 4238,
      "max": [
        0.99229937791824341,
        0.99580323696136475,
        0.99986046552658081
      ],
      "min": [
        -0.99800574779510498,
        -0.99892038106918335,
        -0.71239101886749268
      ],
      "type": "VEC3"
    },
    {
      "bufferView": 3,
      "byteOffset": 135872,
      "componentType": 5126,
      "count": 4238,
      "max": [
        0.9999200701713562,
        0.99908906221389771,
        0.99554663896560669,
        1
      ],
      "min": [
        -0.99823713302612305,
        -0.99791860580444336,
        -0.99685454368591309,
        -1
      ],
      "type": "VEC4"
    },
    {
      "bufferView": 1,
      "byteOffset": 67808,
      "componentType": 5126,
      "count": 4238,
      "max": [
        -31.944999694824219,
        2.0218000411987305
      ],
      "min": [
        -32.997501373291016,
        1.0021899938583374
      ],
      "type": "VEC2"
    },
    {
      "bufferView": 0,
      "byteOffset": 97944,
      "componentType": 5125,
      "count": 12225,
      "max": [
        4237
      ],
      "min": [
        0
      ],
      "type": "SCALAR"
    },
    {
      "bufferView": 2,
      "byteOffset": 305520,
      "componentType": 5126,
      "count": 4238,
      "max": [
        211.10600280761719,
        228.43600463867188,
        214.72300720214844
      ],
      "min": [
        23.536500930786133,
        42.581798553466797,
        134.91200256347656
      ],
      "type": "VEC3"
    },
    {
      "bufferView": 2,
      "byteOffset": 356376,
      "componentType": 5126,
      "count": 4238,
      "max": [
        0.99673497676849365,
        0.99492949247360229,
        0.99987298250198364
      ],
      "min": [
        -0.99856287240982056,
        -0.99674421548843384,
        -0.57042008638381958
      ],
      "type": "VEC3"
    },
    {
      "bufferView": 3,
      "byteOffset": 203680,
      "componentType": 5126,
      "count": 4238,
      "max": [
        0.99842232465744019,
        0.99741464853286743,
        0.96194219589233398,
        1
      ],
      "min": [
        -0.9987633228302002,
        -0.99791491031646729,
        -0.99499601125717163,
        -1
      ],
      "type": "VEC4"
    },
    {
      "bufferView": 1,
      "byteOffset": 101712,
      "componentType": 5126,
      "count": 4238,
      "max": [
        -31.944999694824219,
        2.0218000411987305
      ],
      "min": [
        -32.997501373291016,
        1.0021899938583374
      ],
      "type": "VEC2"
    },
    {
      "bufferView": 0,
      "byteOffset": 146844,
      "componentType": 5125,
      "count": 12225,
      "max": [
        4237
      ],
      "min": [
        0
      ],
      "type": "SCALAR"
    },
    {
      "bufferView": 2,
      "byteOffset": 407232,
      "componentType": 5126,
      "count": 4238,
      "max": [
        211.34700012207031,
        227.16200256347656,
        227.34700012207031
      ],
      "min": [
        24.430900573730469,
        31.236200332641602,
        130.63999938964844
      ],
      "type": "VEC3"
    },
    {
      "bufferView": 2,
      "byteOffset": 458088,
      "componentType": 5126,
      "count": 4238,
      "max": [
        0.99929237365722656,
        0.98715049028396606,
        0.9999847412109375
      ],
      "min": [
        -0.97424912452697754,
        -0.99973362684249878,
        -0.34604397416114807
      ],
      "type": "VEC3"
    },
    {
      "bufferView": 3,
      "byteOffset": 271488,
      "componentType": 5126,
      "count": 4238,
      "max": [
        0.99990445375442505,
        0.99802207946777344,
        0.99681681394577026,
        1
      ],
      "min": [
        -0.99651789665222168,
        -0.99924355745315552,
        -0.99628472328186035,
        -1
      ],
      "type": "VEC4"
    },
    {
      "bufferView": 1,
      "byteOffset": 135616,
      "componentType": 5126,
      "count": 4238,
      "max": [
        -31.944999694824219,
        2.0218000411987305
      ],
      "min": [
        -32.997501373291016,
        1.0021899938583374
      ],
      "type": "VEC2"
    },
    {
      "bufferView": 0,
      "byteOffset": 195744,
      "componentType": 5125,
      "count": 12225,
      "max": [
        4237
      ],
      "min": [
        0
      ],
      "type": "SCALAR"
    },
    {
      "bufferView": 2,
      "byteOffset": 508944,
      "componentType": 5126,
      "count": 3380,
      "max": [
        195.50999450683594,
        228.27699279785156,
        219.87100219726562
      ],
      "min": [
        2.4378199577331543,
        9.6031198501586914,
        133.28700256347656
      ],
      "type": "VEC3"
    },
    {
      "bufferView": 2,
      "byteOffset": 549504,
      "componentType": 5126,
      "count": 3380,
      "max": [
        0.96377146244049072,
        0.64066922664642334,
        0.99997973442077637
      ],
      "min": [
        -0.89650344848632812,
        -0.99999237060546875,
        -0.30055701732635498
      ],
      "type": "VEC3"
    },
    {
      "bufferView": 3,
      "byteOffset": 339296,
      "componentType": 5126,
      "count": 3380,
      "max": [
        0.99998164176940918,
        0.9977230429649353,
        0.99876534938812256,
        1
      ],
      "min": [
        -0.99826914072036743,
        -0.99980771541595459,
        -0.99339514970779419,
        -1
      ],
      "type": "VEC4"
    },
    {
      "bufferView": 1,
      "byteOffset": 169520,
      "componentType": 5126,
      "count": 3380,
      "max": [
        -31.944999694824219,
        2.0218000411987305
      ],
      "min": [
        -32.997501373291016,
        1.0021899938583374
      ],
      "type": "VEC2"
    },
    {
      "bufferView": 0,
      "byteOffset": 244644,
      "componentType": 5125,
      "count": 9750,
      "max": [
        3379
      ],
      "min": [
        0
      ],
      "type": "SCALAR"
    },
    {
      "bufferView": 2,
      "byteOffset": 590064,
      "componentType": 5126,
      "count": 8062,
      "max": [
        195.03500366210938,
        209.42399597167969,
        211.54499816894531
      ],
      "min": [
        17.862899780273438,
        19.556100845336914,
        0
      ],
      "type": "VEC3"
    },
    {
      "bufferView": 2,
      "byteOffset": 686808,
      "componentType": 5126,
      "count": 8062,
      "max": [
        0.99801778793334961,
        0.9992937445640564,
        0.98366349935531616
      ],
      "min": [
        -0.99866747856140137,
        -0.99904054403305054,
        -0.99726766347885132
      ],
      "type": "VEC3"
    },
    {
      "bufferView": 3,
      "byteOffset": 393376,
      "componentType": 5126,
      "count": 8062,
      "max": [
        0.99968183040618896,
        0.99988740682601929,
        0.9941704273223877,
        1
      ],
      "min": [
        -0.99999988079071045,
        -0.99995434284210205,
        -0.96899086236953735,
        -1
      ],
      "type": "VEC4"
    },
    {
      "bufferView": 1,
      "byteOffset": 196560,
      "componentType": 5126,
      "count": 8062,
      "max": [
        3.4450700283050537,
        4.9975099563598633
      ],
      "min": [
        -3.5095000267028809,
        0.25047299265861511
      ],
      "type": "VEC2"
    },
    {
      "bufferView": 0,
      "byteOffset": 283644,
      "componentType": 5125,
      "count": 8616,
      "max": [
        8061
      ],
      "min": [
        0
      ],
      "type": "SCALAR"
    }
  ],
  "asset": {
    "extras": {
      "author": "farhad.Guli (https://sketchfab.com/farhad.Guli)",
      "license": "CC-BY-4.0 (http://creativecommons.org/licenses/by/4.0/)",
      "source": "https://sketchfab.com/models/7016d1d32fe748f0a8b3f5eb39374bc4",
      "title": "Tree"
    },
    "generator": "Sketchfab-3.20.7",
    "version": "2.0"
  },
  "bufferViews": [
    {
      "buffer": 0,
      "byteLength": 318108,
      "byteOffset": 0,
      "name": "floatBufferViews",
      "target": 34963
    },
    {
      "buffer": 0,
      "byteLength": 261056,
      "byteOffset": 318108,
      "byteStride": 8,
      "name": "floatBufferViews",
      "target": 34962
    },
    {
      "buffer": 0,
      "byteLength": 783552,
      "byteOffset": 579164,
      "byteStride": 12,
      "name": "floatBufferViews",
      "target": 34962
    },
    {
      "buffer": 0,
      "byteLength": 522368,
      "byteOffset": 1362716,
      "byteStride": 16,
      "name": "floatBufferViews",
      "target": 34962
    }
  ],
  "buffers": [
    {
      "byteLength": 1885084,
      "uri": "scene.bin"
    }
  ],
  "images": [
    {
      "uri": "textures/Vegetation_Bark_Maple_1_baseColor.jpeg"
    },
    {
      "uri": "textures/material_baseColor.png"
    }
  ],
  "materials": [
    {
      "doubleSided": true,
      "emissiveFactor": [
        0,
        0,
        0
      ],
      "name": "material",
      "pbrMetallicRoughness": {
        "baseColorFactor": [
          1,
          1,
          1,
          1
        ],
        "baseColorTexture": {
          "index": 1,
          "texCoord": 0
        },
        "metallicFactor": 0,
        "roughnessFactor": 0.59999999999999998
      }
    },
    {
      "doubleSided": true,
      "emissiveFactor": [
        0,
        0,
        0
      ],
      "name": "Vegetation_Bark_Maple_1",
      "pbrMetallicRoughness": {
        "baseColorFactor": [
          1,
          1,
          1,
          1
        ],
        "baseColorTexture": {
          "index": 0,
          "texCoord": 0
        },
        "metallicFactor": 0,
        "roughnessFactor": 0.59999999999999998
      }
    },
    {
      "doubleSided": true,
      "emissiveFactor": [
        0,
        0,
        0
      ],
      "name": "formica_cinza",
      "pbrMetallicRoughness": {
        "baseColorFactor": [
          0.40000000000000002,
          0.40000000000000002,
          0.40000000000000002,
          1
        ],
        "metallicFactor": 0,
        "roughnessFactor": 0.59999999999999998
      }
    }
  ],
  "meshes": [
    {
      "primitives": [
        {
          "attributes": {
            "NORMAL": 1,
            "POSITION": 0,
            "TANGENT": 2
          },
          "indices": 3,
          "material": 2,
          "mode": 4
        }
      ]
    },
    {
      "primitives": [
        {
          "attributes": {
            "NORMAL": 5,
            "POSITION": 4,
            "TANGENT": 6,
            "TEXCOORD_0": 7
          },
          "indices": 8,
          "material": 0,
          "mode": 4
        }
      ]
    },
    {
      "primitives": [
        {
          "attributes": {
            "NORMAL": 10,
            "POSITION": 9,
            "TANGENT": 11,
            "TEXCOORD_0": 12
          },
          "indices": 13,
          "material": 0,
          "mode": 4
        }
      ]
    },
    {
      "primitives": [
        {
          "attributes": {
            "NORMAL": 15,
            "POSITION": 14,
            "TANGENT": 16,
            "TEXCOORD_0": 17
          },
          "indices": 18,
          "material": 0,
          "mode": 4
        }
      ]
    },
    {
      "primitives": [
        {
          "attributes": {
            "NORMAL": 20,
            "POSITION": 19,
            "TANGENT": 21,
            "TEXCOORD_0": 22
          },
          "indices": 23,
          "material": 0,
          "mode": 4
        }
      ]
    },
    {
      "primitives": [
        {
          "attributes": {
            "NORMAL": 25,
            "POSITION": 24,
            "TANGENT": 26,
            "TEXCOORD_0": 27
          },
          "indices": 28,
          "material": 0,
          "mode": 4
        }
      ]
    },
    {
      "primitives": [
        {
          "attributes": {
            "NORMAL": 30,
            "POSITION": 29,
            "TANGENT": 31,
            "TEXCOORD_0": 32
          },
          "indices": 33,
          "material": 0,
          "mode": 4
        }
      ]
    },
    {
      "primitives": [
        {
          "attributes": {
            "NORMAL": 35,
            "POSITION": 34,
            "TANGENT": 36,
            "TEXCOORD_0": 37
          },
          "indices": 38,
          "material": 1,
          "mode": 4
        }
      ]
    }
  ],
  "nodes": [
    {
      "children": [
        1
      ],
      "name": "RootNode (gltf orientation matrix)",
      "rotation": [
        -0.70710678118654746,
        -0,
        -0,
        0.70710678118654757
      ]
    },
    {
      "children": [
        2
      ],
      "name": "RootNode (model correction matrix)"
    },
    {
      "children": [
        3
      ],
      "matrix": [
        1,
        0,
        0,
        0,
        0,
        1,
        0,
        0,
        0,
        0,
        1,
        0,
        1.6468600029691249e-13,
        5.0533801318822236e-13,
        -1.3535799949426428e-14,
        1
      ],
      "name": "JASMIM+MANGA.obj.cleaner.gles"
    },
    {
      "children": [
        4,
        5,
        6,
        7,
        8,
        9,
        10,
        11
      ],
      "name": ""
    },
    {
      "mesh": 0,
      "name": ""
    },
    {
      "mesh": 1,
      "name": ""
    },
    {
      "mesh": 2,
      "name": ""
    },
    {
      "mesh": 3,
      "name": ""
    },
    {
      "mesh": 4,
      "name": ""
    },
    {
      "mesh": 5,
      "name": ""
    },
    {
      "mesh": 6,
      "name": ""
    },
    {
      "mesh": 7,
      "name": ""
    }
  ],
  "samplers": [
    {
      "magFilter": 9729,
      "minFilter": 9987,
      "wrapS": 10497,
      "wrapT": 10497
    }
  ],
  "scene": 0,
  "scenes": [
    {
      "name": "OSG_Scene",
      "nodes": [
        0
      ]
    }
  ],
  "textures": [
    {
      "sampler": 0,
      "source": 0
    },
    {
      "sampler": 0,
      "source": 1
    }
  ]
}

