{
    "asset" : {
        "generator" : "Khronos glTF Blender I/O v1.0.5",
        "version" : "2.0"
    },
    "scene" : 0,
    "scenes" : [
        {
            "name" : "Scene",
            "nodes" : [
                0,
                1,
                2
            ]
        }
    ],
    "nodes" : [
        {
            "mesh" : 0,
            "name" : "Circle",
            "rotation" : [
                0.7071068286895752,
                0,
                0,
                0.7071067094802856
            ]
        },
        {
            "mesh" : 1,
            "name" : "Cylinder",
            "rotation" : [
                0.7071068286895752,
                0,
                0,
                0.7071067094802856
            ]
        },
        {
            "mesh" : 2,
            "name" : "Cylinder.001",
            "rotation" : [
                0.7071068286895752,
                0,
                0,
                0.7071067094802856
            ]
        }
    ],
    "materials" : [
        {
            "doubleSided" : true,
            "name" : "Material.001",
            "pbrMetallicRoughness" : {
                "baseColorTexture" : {
                    "index" : 0,
                    "texCoord" : 0
                },
                "metallicFactor" : 0,
                "roughnessFactor" : 0.5
            }
        },
        {
            "doubleSided" : true,
            "name" : "Material.002",
            "pbrMetallicRoughness" : {
                "baseColorTexture" : {
                    "index" : 1,
                    "texCoord" : 0
                },
                "metallicFactor" : 0,
                "roughnessFactor" : 0.5
            }
        },
        {
            "doubleSided" : true,
            "name" : "Material.003",
            "pbrMetallicRoughness" : {
                "baseColorTexture" : {
                    "index" : 2,
                    "texCoord" : 0
                },
                "metallicFactor" : 0,
                "roughnessFactor" : 0.5
            }
        }
    ],
    "meshes" : [
        {
            "name" : "Circle",
            "primitives" : [
                {
                    "attributes" : {
                        "POSITION" : 0,
                        "NORMAL" : 1,
                        "TEXCOORD_0" : 2
                    },
                    "indices" : 3,
                    "material" : 0
                }
            ]
        },
        {
            "name" : "Cylinder",
            "primitives" : [
                {
                    "attributes" : {
                        "POSITION" : 4,
                        "NORMAL" : 5,
                        "TEXCOORD_0" : 6
                    },
                    "indices" : 7,
                    "material" : 1
                }
            ]
        },
        {
            "name" : "Cylinder.001",
            "primitives" : [
                {
                    "attributes" : {
                        "POSITION" : 8,
                        "NORMAL" : 9,
                        "TEXCOORD_0" : 10
                    },
                    "indices" : 11,
                    "material" : 2
                }
            ]
        }
    ],
    "textures" : [
        {
            "source" : 0
        },
        {
            "source" : 0
        },
        {
            "source" : 0
        }
    ],
    "images" : [
        {
            "mimeType" : "image/jpeg",
            "name" : "nighthawk",
            "uri" : "nighthawk.jpg"
        }
    ],
    "accessors" : [
        {
            "bufferView" : 0,
            "componentType" : 5126,
            "count" : 25208,
            "max" : [
                89.41561889648438,
                58.67478561401367,
                15.350015640258789
            ],
            "min" : [
                -89.41561889648438,
                -74.4937744140625,
                -24.551485061645508
            ],
            "type" : "VEC3"
        },
        {
            "bufferView" : 1,
            "componentType" : 5126,
            "count" : 25208,
            "type" : "VEC3"
        },
        {
            "bufferView" : 2,
            "componentType" : 5126,
            "count" : 25208,
            "type" : "VEC2"
        },
        {
            "bufferView" : 3,
            "componentType" : 5123,
            "count" : 38448,
            "type" : "SCALAR"
        },
        {
            "bufferView" : 4,
            "componentType" : 5126,
            "count" : 12000,
            "max" : [
                17.551958084106445,
                24.681509017944336,
                20.05575942993164
            ],
            "min" : [
                -18.3983154296875,
                -6.901788234710693,
                2.0932939052581787
            ],
            "type" : "VEC3"
        },
        {
            "bufferView" : 5,
            "componentType" : 5126,
            "count" : 12000,
            "type" : "VEC3"
        },
        {
            "bufferView" : 6,
            "componentType" : 5126,
            "count" : 12000,
            "type" : "VEC2"
        },
        {
            "bufferView" : 7,
            "componentType" : 5123,
            "count" : 18504,
            "type" : "SCALAR"
        },
        {
            "bufferView" : 8,
            "componentType" : 5126,
            "count" : 6960,
            "max" : [
                10.189366340637207,
                -21.73336410522461,
                -1.2215869426727295
            ],
            "min" : [
                -10.189366340637207,
                -57.474578857421875,
                -6.644913196563721
            ],
            "type" : "VEC3"
        },
        {
            "bufferView" : 9,
            "componentType" : 5126,
            "count" : 6960,
            "type" : "VEC3"
        },
        {
            "bufferView" : 10,
            "componentType" : 5126,
            "count" : 6960,
            "type" : "VEC2"
        },
        {
            "bufferView" : 11,
            "componentType" : 5123,
            "count" : 10776,
            "type" : "SCALAR"
        }
    ],
    "bufferViews" : [
        {
            "buffer" : 0,
            "byteLength" : 302496,
            "byteOffset" : 0
        },
        {
            "buffer" : 0,
            "byteLength" : 302496,
            "byteOffset" : 302496
        },
        {
            "buffer" : 0,
            "byteLength" : 201664,
            "byteOffset" : 604992
        },
        {
            "buffer" : 0,
            "byteLength" : 76896,
            "byteOffset" : 806656
        },
        {
            "buffer" : 0,
            "byteLength" : 144000,
            "byteOffset" : 883552
        },
        {
            "buffer" : 0,
            "byteLength" : 144000,
            "byteOffset" : 1027552
        },
        {
            "buffer" : 0,
            "byteLength" : 96000,
            "byteOffset" : 1171552
        },
        {
            "buffer" : 0,
            "byteLength" : 37008,
            "byteOffset" : 1267552
        },
        {
            "buffer" : 0,
            "byteLength" : 83520,
            "byteOffset" : 1304560
        },
        {
            "buffer" : 0,
            "byteLength" : 83520,
            "byteOffset" : 1388080
        },
        {
            "buffer" : 0,
            "byteLength" : 55680,
            "byteOffset" : 1471600
        },
        {
            "buffer" : 0,
            "byteLength" : 21552,
            "byteOffset" : 1527280
        }
    ],
    "buffers" : [
        {
            "byteLength" : 1548832,
            "uri" : "nighthawk.bin"
        }
    ]
}
