{
  "accessors": [
    {
      "bufferView": 2,
      "componentType": 5126,
      "count": 651,
      "max": [
        2.096860408782959,
        4.212862491607666,
        3.14292311668396
      ],
      "min": [
        -3.8985161781311035,
        -4.3706045150756836,
        0.009180000051856041
      ],
      "type": "VEC3"
    },
    {
      "bufferView": 2,
      "byteOffset": 7812,
      "componentType": 5126,
      "count": 651,
      "max": [
        0.99999821186065674,
        0.99999469518661499,
        0.99999994039535522
      ],
      "min": [
        -0.99998921155929565,
        -0.99999904632568359,
        -0.99999779462814331
      ],
      "type": "VEC3"
    },
    {
      "bufferView": 3,
      "componentType": 5126,
      "count": 651,
      "max": [
        1,
        0.99998921155929565,
        0.78712630271911621,
        1
      ],
      "min": [
        -0.99999940395355225,
        -0.99999839067459106,
        -0.7519838809967041,
        1
      ],
      "type": "VEC4"
    },
    {
      "bufferView": 3,
      "byteOffset": 10416,
      "componentType": 5126,
      "count": 651,
      "max": [
        1,
        1,
        1,
        1
      ],
      "min": [
        1,
        1,
        1,
        1
      ],
      "type": "VEC4"
    },
    {
      "bufferView": 1,
      "componentType": 5126,
      "count": 651,
      "max": [
        0.99986082315444946,
        0.84420466423034668
      ],
      "min": [
        0.0001391629921272397,
        0.0001391629921272397
      ],
      "type": "VEC2"
    },
    {
      "bufferView": 0,
      "componentType": 5125,
      "count": 3168,
      "max": [
        650
      ],
      "min": [
        0
      ],
      "type": "SCALAR"
    },
    {
      "bufferView": 2,
      "byteOffset": 15624,
      "componentType": 5126,
      "count": 6104,
      "max": [
        3.0662169456481934,
        6.0475387573242188,
        2.154047966003418
      ],
      "min": [
        -3.1984057426452637,
        -6.2813811302185059,
        0.013405938632786274
      ],
      "type": "VEC3"
    },
    {
      "bufferView": 2,
      "byteOffset": 88872,
      "componentType": 5126,
      "count": 6104,
      "max": [
        0.99992048740386963,
        0.99998807907104492,
        1
      ],
      "min": [
        -0.99985575675964355,
        -0.99978911876678467,
        -1
      ],
      "type": "VEC3"
    },
    {
      "bufferView": 3,
      "byteOffset": 20832,
      "componentType": 5126,
      "count": 6104,
      "max": [
        0.99999916553497314,
        0.99999803304672241,
        0.99935388565063477,
        1
      ],
      "min": [
        -0.99999415874481201,
        -0.99998760223388672,
        -0.99909317493438721,
        -1
      ],
      "type": "VEC4"
    },
    {
      "bufferView": 3,
      "byteOffset": 118496,
      "componentType": 5126,
      "count": 6104,
      "max": [
        1,
        1,
        1,
        1
      ],
      "min": [
        1,
        1,
        1,
        1
      ],
      "type": "VEC4"
    },
    {
      "bufferView": 1,
      "byteOffset": 5208,
      "componentType": 5126,
      "count": 6104,
      "max": [
        0.96375399827957153,
        0.99976301193237305
      ],
      "min": [
        0.00023700000019744039,
        0.00023700000019744039
      ],
      "type": "VEC2"
    },
    {
      "bufferView": 0,
      "byteOffset": 12672,
      "componentType": 5125,
      "count": 30696,
      "max": [
        6103
      ],
      "min": [
        0
      ],
      "type": "SCALAR"
    },
    {
      "bufferView": 2,
      "byteOffset": 162120,
      "componentType": 5126,
      "count": 2182,
      "max": [
        3.4979920387268066,
        3.4089322090148926,
        4.5214738845825195
      ],
      "min": [
        -3.3835020065307617,
        -5.545048713684082,
        -1.2353248735053057e-07
      ],
      "type": "VEC3"
    },
    {
      "bufferView": 2,
      "byteOffset": 188304,
      "componentType": 5126,
      "count": 2182,
      "max": [
        1,
        0.99938470125198364,
        1
      ],
      "min": [
        -0.99999868869781494,
        -0.99938470125198364,
        -1
      ],
      "type": "VEC3"
    },
    {
      "bufferView": 3,
      "byteOffset": 216160,
      "componentType": 5126,
      "count": 2182,
      "max": [
        0.99929535388946533,
        0.99808788299560547,
        0.71845436096191406,
        1
      ],
      "min": [
        -0.99944847822189331,
        -0.99957329034805298,
        -1,
        -1
      ],
      "type": "VEC4"
    },
    {
      "bufferView": 3,
      "byteOffset": 251072,
      "componentType": 5126,
      "count": 2182,
      "max": [
        1,
        1,
        1,
        1
      ],
      "min": [
        1,
        1,
        1,
        1
      ],
      "type": "VEC4"
    },
    {
      "bufferView": 1,
      "byteOffset": 54040,
      "componentType": 5126,
      "count": 2182,
      "max": [
        0.9511188268661499,
        0.99968576431274414
      ],
      "min": [
        0.0003141852212138474,
        0.0003141852212138474
      ],
      "type": "VEC2"
    },
    {
      "bufferView": 0,
      "byteOffset": 135456,
      "componentType": 5125,
      "count": 8844,
      "max": [
        2181
      ],
      "min": [
        0
      ],
      "type": "SCALAR"
    },
    {
      "bufferView": 2,
      "byteOffset": 214488,
      "componentType": 5126,
      "count": 3457,
      "max": [
        3.8936796188354492,
        5.8575687408447266,
        2.5141475200653076
      ],
      "min": [
        -2.8133864402770996,
        -3.5816185474395752,
        -0.0015932436799630523
      ],
      "type": "VEC3"
    },
    {
      "bufferView": 2,
      "byteOffset": 255972,
      "componentType": 5126,
      "count": 3457,
      "max": [
        1,
        1,
        1
      ],
      "min": [
        -1,
        -1,
        -1
      ],
      "type": "VEC3"
    },
    {
      "bufferView": 3,
      "byteOffset": 285984,
      "componentType": 5126,
      "count": 3457,
      "max": [
        0.99999123811721802,
        1,
        1,
        1
      ],
      "min": [
        -0.99903905391693115,
        -1,
        -1,
        -1
      ],
      "type": "VEC4"
    },
    {
      "bufferView": 3,
      "byteOffset": 341296,
      "componentType": 5126,
      "count": 3457,
      "max": [
        1,
        1,
        1,
        1
      ],
      "min": [
        1,
        1,
        1,
        1
      ],
      "type": "VEC4"
    },
    {
      "bufferView": 1,
      "byteOffset": 71496,
      "componentType": 5126,
      "count": 3457,
      "max": [
        0.98411524295806885,
        0.99904942512512207
      ],
      "min": [
        0.00072764011565595865,
        0.00072764011565595865
      ],
      "type": "VEC2"
    },
    {
      "bufferView": 0,
      "byteOffset": 170832,
      "componentType": 5125,
      "count": 13992,
      "max": [
        3456
      ],
      "min": [
        0
      ],
      "type": "SCALAR"
    }
  ],
  "asset": {
    "extras": {
      "author": "toomanydemons (https://sketchfab.com/toomanydemons)",
      "license": "CC-BY-4.0 (http://creativecommons.org/licenses/by/4.0/)",
      "source": "https://sketchfab.com/3d-models/barrels-1009f5c51391437e9ed2b97f04b9af31",
      "title": "Barrels!"
    },
    "generator": "Sketchfab-4.88.0",
    "version": "2.0"
  },
  "bufferViews": [
    {
      "buffer": 0,
      "byteLength": 226800,
      "byteOffset": 0,
      "name": "floatBufferViews",
      "target": 34963
    },
    {
      "buffer": 0,
      "byteLength": 99152,
      "byteOffset": 226800,
      "byteStride": 8,
      "name": "floatBufferViews",
      "target": 34962
    },
    {
      "buffer": 0,
      "byteLength": 297456,
      "byteOffset": 325952,
      "byteStride": 12,
      "name": "floatBufferViews",
      "target": 34962
    },
    {
      "buffer": 0,
      "byteLength": 396608,
      "byteOffset": 623408,
      "byteStride": 16,
      "name": "floatBufferViews",
      "target": 34962
    }
  ],
  "buffers": [
    {
      "byteLength": 1020016,
      "uri": "scene.bin"
    }
  ],
  "images": [
    {
      "uri": "textures/MAT_Barrel03-05_baseColor.png"
    },
    {
      "uri": "textures/MAT_Barrel03-05_metallicRoughness.png"
    },
    {
      "uri": "textures/MAT_Barrel03-05_normal.png"
    },
    {
      "uri": "textures/MAT_Barrel02_baseColor.png"
    },
    {
      "uri": "textures/MAT_Barrel02_metallicRoughness.png"
    },
    {
      "uri": "textures/MAT_Barrel02_normal.png"
    },
    {
      "uri": "textures/MAT_Barrel01_baseColor.png"
    },
    {
      "uri": "textures/MAT_Barrel01_metallicRoughness.png"
    },
    {
      "uri": "textures/MAT_Barrel01_normal.png"
    },
    {
      "uri": "textures/MAT_kegs_baseColor.png"
    },
    {
      "uri": "textures/MAT_kegs_metallicRoughness.png"
    },
    {
      "uri": "textures/MAT_kegs_normal.png"
    }
  ],
  "materials": [
    {
      "doubleSided": false,
      "name": "MAT_Barrel01",
      "normalTexture": {
        "index": 8,
        "scale": 1,
        "texCoord": 0
      },
      "occlusionTexture": {
        "index": 7,
        "strength": 1,
        "texCoord": 0
      },
      "pbrMetallicRoughness": {
        "baseColorFactor": [
          1,
          1,
          1,
          1
        ],
        "baseColorTexture": {
          "index": 6,
          "texCoord": 0
        },
        "metallicFactor": 1,
        "metallicRoughnessTexture": {
          "index": 7,
          "texCoord": 0
        },
        "roughnessFactor": 1
      }
    },
    {
      "doubleSided": false,
      "name": "MAT_Barrel02",
      "normalTexture": {
        "index": 5,
        "scale": 1,
        "texCoord": 0
      },
      "occlusionTexture": {
        "index": 4,
        "strength": 1,
        "texCoord": 0
      },
      "pbrMetallicRoughness": {
        "baseColorFactor": [
          1,
          1,
          1,
          1
        ],
        "baseColorTexture": {
          "index": 3,
          "texCoord": 0
        },
        "metallicFactor": 1,
        "metallicRoughnessTexture": {
          "index": 4,
          "texCoord": 0
        },
        "roughnessFactor": 1
      }
    },
    {
      "doubleSided": false,
      "name": "MAT_Barrel03-05",
      "normalTexture": {
        "index": 2,
        "scale": 1,
        "texCoord": 0
      },
      "occlusionTexture": {
        "index": 1,
        "strength": 1,
        "texCoord": 0
      },
      "pbrMetallicRoughness": {
        "baseColorFactor": [
          1,
          1,
          1,
          1
        ],
        "baseColorTexture": {
          "index": 0,
          "texCoord": 0
        },
        "metallicFactor": 1,
        "metallicRoughnessTexture": {
          "index": 1,
          "texCoord": 0
        },
        "roughnessFactor": 1
      }
    },
    {
      "doubleSided": false,
      "name": "MAT_kegs",
      "normalTexture": {
        "index": 11,
        "scale": 1,
        "texCoord": 0
      },
      "occlusionTexture": {
        "index": 10,
        "strength": 1,
        "texCoord": 0
      },
      "pbrMetallicRoughness": {
        "baseColorFactor": [
          1,
          1,
          1,
          1
        ],
        "baseColorTexture": {
          "index": 9,
          "texCoord": 0
        },
        "metallicFactor": 1,
        "metallicRoughnessTexture": {
          "index": 10,
          "texCoord": 0
        },
        "roughnessFactor": 1
      }
    }
  ],
  "meshes": [
    {
      "name": "Barrel01.001_MAT_Barrel01_0",
      "primitives": [
        {
          "attributes": {
            "COLOR_0": 3,
            "NORMAL": 1,
            "POSITION": 0,
            "TANGENT": 2,
            "TEXCOORD_0": 4
          },
          "indices": 5,
          "material": 0,
          "mode": 4
        }
      ]
    },
    {
      "name": "Barrel01.001_MAT_Barrel02_0",
      "primitives": [
        {
          "attributes": {
            "COLOR_0": 9,
            "NORMAL": 7,
            "POSITION": 6,
            "TANGENT": 8,
            "TEXCOORD_0": 10
          },
          "indices": 11,
          "material": 1,
          "mode": 4
        }
      ]
    },
    {
      "name": "Barrel01.001_MAT_Barrel03-05_0",
      "primitives": [
        {
          "attributes": {
            "COLOR_0": 15,
            "NORMAL": 13,
            "POSITION": 12,
            "TANGENT": 14,
            "TEXCOORD_0": 16
          },
          "indices": 17,
          "material": 2,
          "mode": 4
        }
      ]
    },
    {
      "name": "Barrel01.001_MAT_kegs_0",
      "primitives": [
        {
          "attributes": {
            "COLOR_0": 21,
            "NORMAL": 19,
            "POSITION": 18,
            "TANGENT": 20,
            "TEXCOORD_0": 22
          },
          "indices": 23,
          "material": 3,
          "mode": 4
        }
      ]
    }
  ],
  "nodes": [
    {
      "children": [
        1
      ],
      "name": "RootNode (gltf orientation matrix)",
      "rotation": [
        -0.70710678118654746,
        -0,
        -0,
        0.70710678118654757
      ]
    },
    {
      "children": [
        2
      ],
      "name": "RootNode (model correction matrix)"
    },
    {
      "children": [
        3
      ],
      "matrix": [
        1,
        0,
        0,
        0,
        0,
        0,
        1,
        0,
        0,
        -1,
        0,
        0,
        0,
        0,
        0,
        1
      ],
      "name": "3827da5dd06e4d1ba9a10e6ea94531c1.fbx"
    },
    {
      "children": [
        4
      ],
      "name": "RootNode"
    },
    {
      "children": [
        5,
        6,
        7,
        8
      ],
      "matrix": [
        100,
        0,
        0,
        0,
        0,
        -1.6292067939183141e-05,
        -99.999999999998678,
        0,
        0,
        99.999999999998678,
        -1.6292067939183141e-05,
        0,
        0,
        0,
        0,
        1
      ],
      "name": "Barrel01.001"
    },
    {
      "mesh": 0,
      "name": "Barrel01.001_MAT_Barrel01_0"
    },
    {
      "mesh": 1,
      "name": "Barrel01.001_MAT_Barrel02_0"
    },
    {
      "mesh": 2,
      "name": "Barrel01.001_MAT_Barrel03-05_0"
    },
    {
      "mesh": 3,
      "name": "Barrel01.001_MAT_kegs_0"
    }
  ],
  "samplers": [
    {
      "magFilter": 9729,
      "minFilter": 9987,
      "wrapS": 10497,
      "wrapT": 10497
    }
  ],
  "scene": 0,
  "scenes": [
    {
      "name": "OSG_Scene",
      "nodes": [
        0
      ]
    }
  ],
  "textures": [
    {
      "sampler": 0,
      "source": 0
    },
    {
      "sampler": 0,
      "source": 1
    },
    {
      "sampler": 0,
      "source": 2
    },
    {
      "sampler": 0,
      "source": 3
    },
    {
      "sampler": 0,
      "source": 4
    },
    {
      "sampler": 0,
      "source": 5
    },
    {
      "sampler": 0,
      "source": 6
    },
    {
      "sampler": 0,
      "source": 7
    },
    {
      "sampler": 0,
      "source": 8
    },
    {
      "sampler": 0,
      "source": 9
    },
    {
      "sampler": 0,
      "source": 10
    },
    {
      "sampler": 0,
      "source": 11
    }
  ]
}

