{
    "asset" : {
        "generator" : "Khronos glTF Blender I/O v1.0.5",
        "version" : "2.0"
    },
    "scene" : 0,
    "scenes" : [
        {
            "name" : "Scene",
            "nodes" : [
                0
            ]
        }
    ],
    "nodes" : [
        {
            "mesh" : 0,
            "name" : "Cube"
        }
    ],
    "meshes" : [
        {
            "name" : "Cube.001",
            "primitives" : [
                {
                    "attributes" : {
                        "POSITION" : 0,
                        "NORMAL" : 1,
                        "TEXCOORD_0" : 2
                    },
                    "indices" : 3
                },
                {
                    "attributes" : {
                        "POSITION" : 4,
                        "NORMAL" : 5,
                        "TEXCOORD_0" : 6
                    },
                    "indices" : 7
                },
                {
                    "attributes" : {
                        "POSITION" : 8,
                        "NORMAL" : 9,
                        "TEXCOORD_0" : 10
                    },
                    "indices" : 11
                }
            ]
        }
    ],
    "accessors" : [
        {
            "bufferView" : 0,
            "componentType" : 5126,
            "count" : 65533,
            "max" : [
                5.651039123535156,
                9.678590774536133,
                4.177892684936523
            ],
            "min" : [
                -5.651039123535156,
                -0.29112741351127625,
                -5.783332824707031
            ],
            "type" : "VEC3"
        },
        {
            "bufferView" : 1,
            "componentType" : 5126,
            "count" : 65533,
            "type" : "VEC3"
        },
        {
            "bufferView" : 2,
            "componentType" : 5126,
            "count" : 65533,
            "type" : "VEC2"
        },
        {
            "bufferView" : 3,
            "componentType" : 5123,
            "count" : 101217,
            "type" : "SCALAR"
        },
        {
            "bufferView" : 4,
            "componentType" : 5126,
            "count" : 19973,
            "max" : [
                5.393543243408203,
                9.678590774536133,
                4.177892684936523
            ],
            "min" : [
                -2.981942892074585,
                4.148262977600098,
                -3.20877742767334
            ],
            "type" : "VEC3"
        },
        {
            "bufferView" : 5,
            "componentType" : 5126,
            "count" : 19973,
            "type" : "VEC3"
        },
        {
            "bufferView" : 6,
            "componentType" : 5126,
            "count" : 19973,
            "type" : "VEC2"
        },
        {
            "bufferView" : 7,
            "componentType" : 5123,
            "count" : 30999,
            "type" : "SCALAR"
        },
        {
            "bufferView" : 8,
            "componentType" : 5126,
            "count" : 4,
            "max" : [
                4.629735469818115,
                6.166387557983398,
                3.2674365043640137
            ],
            "min" : [
                4.609761714935303,
                6.143086910247803,
                3.2316482067108154
            ],
            "type" : "VEC3"
        },
        {
            "bufferView" : 9,
            "componentType" : 5126,
            "count" : 4,
            "type" : "VEC3"
        },
        {
            "bufferView" : 10,
            "componentType" : 5126,
            "count" : 4,
            "type" : "VEC2"
        },
        {
            "bufferView" : 11,
            "componentType" : 5123,
            "count" : 6,
            "type" : "SCALAR"
        }
    ],
    "bufferViews" : [
        {
            "buffer" : 0,
            "byteLength" : 786396,
            "byteOffset" : 0
        },
        {
            "buffer" : 0,
            "byteLength" : 786396,
            "byteOffset" : 786396
        },
        {
            "buffer" : 0,
            "byteLength" : 524264,
            "byteOffset" : 1572792
        },
        {
            "buffer" : 0,
            "byteLength" : 202434,
            "byteOffset" : 2097056
        },
        {
            "buffer" : 0,
            "byteLength" : 239676,
            "byteOffset" : 2299492
        },
        {
            "buffer" : 0,
            "byteLength" : 239676,
            "byteOffset" : 2539168
        },
        {
            "buffer" : 0,
            "byteLength" : 159784,
            "byteOffset" : 2778844
        },
        {
            "buffer" : 0,
            "byteLength" : 61998,
            "byteOffset" : 2938628
        },
        {
            "buffer" : 0,
            "byteLength" : 48,
            "byteOffset" : 3000628
        },
        {
            "buffer" : 0,
            "byteLength" : 48,
            "byteOffset" : 3000676
        },
        {
            "buffer" : 0,
            "byteLength" : 32,
            "byteOffset" : 3000724
        },
        {
            "buffer" : 0,
            "byteLength" : 12,
            "byteOffset" : 3000756
        }
    ],
    "buffers" : [
        {
            "byteLength" : 3000768,
            "uri" : "mech.bin"
        }
    ]
}
