{
  "accessors": [
    {
      "bufferView": 2,
      "componentType": 5126,
      "count": 24815,
      "max": [
        0.5809069871902466,
        6.310437202453613,
        1.7875839471817017
      ],
      "min": [
        -0.453125,
        -6.310437202453613,
        -1.847936987876892
      ],
      "type": "VEC3"
    },
    {
      "bufferView": 2,
      "byteOffset": 297780,
      "componentType": 5126,
      "count": 24815,
      "max": [
        1.0,
        1.0,
        1.0
      ],
      "min": [
        -1.0,
        -1.0,
        -1.0
      ],
      "type": "VEC3"
    },
    {
      "bufferView": 3,
      "componentType": 5126,
      "count": 24815,
      "max": [
        1.0,
        1.0,
        1.0,
        1.0
      ],
      "min": [
        -1.0,
        -1.0,
        -1.0,
        -1.0
      ],
      "type": "VEC4"
    },
    {
      "bufferView": 1,
      "componentType": 5126,
      "count": 24815,
      "max": [
        0.9970589876174927,
        1.0032099485397339
      ],
      "min": [
        6.000000212225132e-06,
        -9.999999974752427e-07
      ],
      "type": "VEC2"
    },
    {
      "bufferView": 0,
      "componentType": 5125,
      "count": 79767,
      "type": "SCALAR"
    },
    {
      "bufferView": 2,
      "byteOffset": 595560,
      "componentType": 5126,
      "count": 53,
      "max": [
        0.2966279983520508,
        -2.5172948837280273,
        1.004256010055542
      ],
      "min": [
        -0.2966279983520508,
        -3.588289976119995,
        0.6954879760742188
      ],
      "type": "VEC3"
    },
    {
      "bufferView": 2,
      "byteOffset": 596196,
      "componentType": 5126,
      "count": 53,
      "max": [
        1.0,
        -0.0,
        0.9807857871055603
      ],
      "min": [
        -1.0,
        -0.0,
        0.0
      ],
      "type": "VEC3"
    },
    {
      "bufferView": 3,
      "byteOffset": 397040,
      "componentType": 5126,
      "count": 53,
      "max": [
        0.9807858467102051,
        1.0,
        0.7071048021316528,
        1.0
      ],
      "min": [
        -0.002336289966478944,
        -0.000594668963458389,
        -0.7071048021316528,
        1.0
      ],
      "type": "VEC4"
    },
    {
      "bufferView": 1,
      "byteOffset": 198520,
      "componentType": 5126,
      "count": 53,
      "max": [
        0.3297260105609894,
        0.21596500277519226
      ],
      "min": [
        6.000000212225132e-06,
        0.0278290007263422
      ],
      "type": "VEC2"
    },
    {
      "bufferView": 0,
      "byteOffset": 319068,
      "componentType": 5125,
      "count": 123,
      "type": "SCALAR"
    }
  ],
  "asset": {
    "extras": {
      "author": "Rotuma (https://sketchfab.com/Rotuma)",
      "license": "CC-BY-4.0 (http://creativecommons.org/licenses/by/4.0/)",
      "source": "https://sketchfab.com/3d-models/scar-h-assault-rifle-black-free-55a0a5c139114747a31eb878ba19acc0",
      "title": "Scar H Assault Rifle Black - free"
    },
    "generator": "Sketchfab-12.61.0",
    "version": "2.0"
  },
  "bufferViews": [
    {
      "buffer": 0,
      "byteLength": 319560,
      "name": "floatBufferViews",
      "target": 34963
    },
    {
      "buffer": 0,
      "byteLength": 198944,
      "byteOffset": 319560,
      "byteStride": 8,
      "name": "floatBufferViews",
      "target": 34962
    },
    {
      "buffer": 0,
      "byteLength": 596832,
      "byteOffset": 518504,
      "byteStride": 12,
      "name": "floatBufferViews",
      "target": 34962
    },
    {
      "buffer": 0,
      "byteLength": 397888,
      "byteOffset": 1115336,
      "byteStride": 16,
      "name": "floatBufferViews",
      "target": 34962
    }
  ],
  "buffers": [
    {
      "byteLength": 1513224,
      "uri": "scene.bin"
    }
  ],
  "images": [
    {
      "uri": "textures/blinn1SG_baseColor.png"
    },
    {
      "uri": "textures/blinn1SG_metallicRoughness.png"
    },
    {
      "uri": "textures/blinn1SG_normal.png"
    }
  ],
  "materials": [
    {
      "doubleSided": true,
      "name": "blinn1SG",
      "normalTexture": {
        "index": 2
      },
      "occlusionTexture": {
        "index": 1
      },
      "pbrMetallicRoughness": {
        "baseColorTexture": {
          "index": 0
        },
        "metallicRoughnessTexture": {
          "index": 1
        }
      }
    }
  ],
  "meshes": [
    {
      "name": "Object_0",
      "primitives": [
        {
          "attributes": {
            "NORMAL": 1,
            "POSITION": 0,
            "TANGENT": 2,
            "TEXCOORD_0": 3
          },
          "indices": 4,
          "material": 0,
          "mode": 4
        }
      ]
    },
    {
      "name": "Object_1",
      "primitives": [
        {
          "attributes": {
            "NORMAL": 6,
            "POSITION": 5,
            "TANGENT": 7,
            "TEXCOORD_0": 8
          },
          "indices": 9,
          "material": 0,
          "mode": 4
        }
      ]
    }
  ],
  "nodes": [
    {
      "children": [
        1
      ],
      "matrix": [
        1.0,
        0.0,
        0.0,
        0.0,
        0.0,
        2.220446049250313e-16,
        -1.0,
        0.0,
        0.0,
        1.0,
        2.220446049250313e-16,
        0.0,
        0.0,
        0.0,
        0.0,
        1.0
      ],
      "name": "Sketchfab_model"
    },
    {
      "children": [
        2,
        3
      ],
      "name": "ScarH.obj.cleaner.materialmerger.gles"
    },
    {
      "mesh": 0,
      "name": "Object_2"
    },
    {
      "mesh": 1,
      "name": "Object_3"
    }
  ],
  "samplers": [
    {
      "magFilter": 9729,
      "minFilter": 9987,
      "wrapS": 10497,
      "wrapT": 10497
    }
  ],
  "scene": 0,
  "scenes": [
    {
      "name": "Sketchfab_Scene",
      "nodes": [
        0
      ]
    }
  ],
  "textures": [
    {
      "sampler": 0,
      "source": 0
    },
    {
      "sampler": 0,
      "source": 1
    },
    {
      "sampler": 0,
      "source": 2
    }
  ]
}
