{
  "accessors": [
    {
      "bufferView": 2,
      "componentType": 5126,
      "count": 547,
      "max": [
        56.48603057861328,
        349.6348876953125,
        11.46658992767334
      ],
      "min": [
        -8.19003963470459,
        0.0,
        -9.673219680786133
      ],
      "type": "VEC3"
    },
    {
      "bufferView": 2,
      "byteOffset": 6564,
      "componentType": 5126,
      "count": 547,
      "max": [
        0.9994211792945862,
        0.8425179719924927,
        0.9997119307518005
      ],
      "min": [
        -0.9986070394515991,
        -0.46997883915901184,
        -0.999591052532196
      ],
      "type": "VEC3"
    },
    {
      "bufferView": 3,
      "componentType": 5126,
      "count": 547,
      "max": [
        0.9992498755455017,
        0.8514688014984131,
        1.0,
        1.0
      ],
      "min": [
        -1.0,
        -0.9769096970558167,
        -1.0,
        -1.0
      ],
      "type": "VEC4"
    },
    {
      "bufferView": 1,
      "componentType": 5126,
      "count": 547,
      "max": [
        -0.0014600000577047467,
        7.634280204772949
      ],
      "min": [
        -0.9995099902153015,
        0.0
      ],
      "type": "VEC2"
    },
    {
      "bufferView": 0,
      "componentType": 5125,
      "count": 2856,
      "type": "SCALAR"
    },
    {
      "bufferView": 2,
      "byteOffset": 13128,
      "componentType": 5126,
      "count": 3850,
      "max": [
        236.07864379882813,
        570.3848266601563,
        212.82774353027344
      ],
      "min": [
        -116.64462280273438,
        218.9793701171875,
        -161.23422241210938
      ],
      "type": "VEC3"
    },
    {
      "bufferView": 2,
      "byteOffset": 59328,
      "componentType": 5126,
      "count": 3850,
      "max": [
        0.9954138398170471,
        0.9997853636741638,
        0.9985634684562683
      ],
      "min": [
        -0.9954138398170471,
        -0.9997853636741638,
        -0.9985634684562683
      ],
      "type": "VEC3"
    },
    {
      "bufferView": 3,
      "byteOffset": 8752,
      "componentType": 5126,
      "count": 3850,
      "max": [
        0.9971025586128235,
        0.9412627220153809,
        0.9990983009338379,
        1.0
      ],
      "min": [
        -0.9952431321144104,
        -0.9345442056655884,
        -0.9989594221115112,
        -1.0
      ],
      "type": "VEC4"
    },
    {
      "bufferView": 1,
      "byteOffset": 4376,
      "componentType": 5126,
      "count": 3850,
      "max": [
        1.000100016593933,
        -0.0
      ],
      "min": [
        9.999999747378752e-05,
        -4.0
      ],
      "type": "VEC2"
    },
    {
      "bufferView": 0,
      "byteOffset": 11424,
      "componentType": 5125,
      "count": 16800,
      "type": "SCALAR"
    },
    {
      "bufferView": 2,
      "byteOffset": 105528,
      "componentType": 5126,
      "count": 4620,
      "max": [
        143.08721923828125,
        459.94793701171875,
        97.27068328857422
      ],
      "min": [
        -46.92966079711914,
        139.63436889648438,
        -74.09687042236328
      ],
      "type": "VEC3"
    },
    {
      "bufferView": 2,
      "byteOffset": 160968,
      "componentType": 5126,
      "count": 4620,
      "max": [
        0.9987483024597168,
        0.8661969304084778,
        0.9996041059494019
      ],
      "min": [
        -0.9987483024597168,
        -0.8661969304084778,
        -0.9996041655540466
      ],
      "type": "VEC3"
    },
    {
      "bufferView": 3,
      "byteOffset": 70352,
      "componentType": 5126,
      "count": 4620,
      "max": [
        0.9997216463088989,
        0.9055529832839966,
        0.9976814985275269,
        1.0
      ],
      "min": [
        -0.9999776482582092,
        -0.9249371886253357,
        -0.9986613392829895,
        -1.0
      ],
      "type": "VEC4"
    },
    {
      "bufferView": 1,
      "byteOffset": 35176,
      "componentType": 5126,
      "count": 4620,
      "max": [
        0.9150999784469604,
        -0.0
      ],
      "min": [
        -0.9995099902153015,
        -1.0
      ],
      "type": "VEC2"
    },
    {
      "bufferView": 0,
      "byteOffset": 78624,
      "componentType": 5125,
      "count": 9852,
      "type": "SCALAR"
    }
  ],
  "asset": {
    "extras": {
      "author": "evolveduk (https://sketchfab.com/evolveduk)",
      "license": "CC-BY-4.0 (http://creativecommons.org/licenses/by/4.0/)",
      "source": "https://sketchfab.com/3d-models/date-palm-11acf710e6c149daa8d6fb8cdc5d087f",
      "title": "Date Palm"
    },
    "generator": "Sketchfab-12.98.0",
    "version": "2.0"
  },
  "bufferViews": [
    {
      "buffer": 0,
      "byteLength": 118032,
      "name": "floatBufferViews",
      "target": 34963
    },
    {
      "buffer": 0,
      "byteLength": 72136,
      "byteOffset": 118032,
      "byteStride": 8,
      "name": "floatBufferViews",
      "target": 34962
    },
    {
      "buffer": 0,
      "byteLength": 216408,
      "byteOffset": 190168,
      "byteStride": 12,
      "name": "floatBufferViews",
      "target": 34962
    },
    {
      "buffer": 0,
      "byteLength": 144272,
      "byteOffset": 406576,
      "byteStride": 16,
      "name": "floatBufferViews",
      "target": 34962
    }
  ],
  "buffers": [
    {
      "byteLength": 550848,
      "uri": "scene.bin"
    }
  ],
  "images": [
    {
      "uri": "textures/Tree_0Mat_baseColor.png"
    },
    {
      "uri": "textures/Tree_0Mat_metallicRoughness.png"
    },
    {
      "uri": "textures/Tree_0Mat_normal.png"
    },
    {
      "uri": "textures/Tree_1Mat_baseColor.png"
    },
    {
      "uri": "textures/Tree_1Mat_metallicRoughness.png"
    },
    {
      "uri": "textures/Tree_1Mat_normal.png"
    },
    {
      "uri": "textures/Tree_2Mat_baseColor.png"
    },
    {
      "uri": "textures/Tree_2Mat_metallicRoughness.png"
    },
    {
      "uri": "textures/Tree_2Mat_normal.png"
    }
  ],
  "materials": [
    {
      "name": "Tree_0Mat",
      "normalTexture": {
        "index": 2
      },
      "pbrMetallicRoughness": {
        "baseColorTexture": {
          "index": 0
        },
        "metallicFactor": 0.0,
        "metallicRoughnessTexture": {
          "index": 1
        }
      }
    },
    {
      "alphaCutoff": 0.2765326402,
      "alphaMode": "MASK",
      "name": "Tree_1Mat",
      "normalTexture": {
        "index": 5
      },
      "pbrMetallicRoughness": {
        "baseColorTexture": {
          "index": 3
        },
        "metallicFactor": 0.0,
        "metallicRoughnessTexture": {
          "index": 4
        }
      }
    },
    {
      "name": "Tree_2Mat",
      "normalTexture": {
        "index": 8
      },
      "pbrMetallicRoughness": {
        "baseColorTexture": {
          "index": 6
        },
        "metallicFactor": 0.0,
        "metallicRoughnessTexture": {
          "index": 7
        }
      }
    }
  ],
  "meshes": [
    {
      "name": "Tree_0_Tree_0Mat_0",
      "primitives": [
        {
          "attributes": {
            "NORMAL": 1,
            "POSITION": 0,
            "TANGENT": 2,
            "TEXCOORD_0": 3
          },
          "indices": 4,
          "material": 0,
          "mode": 4
        }
      ]
    },
    {
      "name": "Tree_1_Tree_1Mat_0",
      "primitives": [
        {
          "attributes": {
            "NORMAL": 6,
            "POSITION": 5,
            "TANGENT": 7,
            "TEXCOORD_0": 8
          },
          "indices": 9,
          "material": 1,
          "mode": 4
        }
      ]
    },
    {
      "name": "Tree_2_Tree_2Mat_0",
      "primitives": [
        {
          "attributes": {
            "NORMAL": 11,
            "POSITION": 10,
            "TANGENT": 12,
            "TEXCOORD_0": 13
          },
          "indices": 14,
          "material": 2,
          "mode": 4
        }
      ]
    }
  ],
  "nodes": [
    {
      "children": [
        1
      ],
      "matrix": [
        1.0,
        0.0,
        0.0,
        0.0,
        0.0,
        2.220446049250313e-16,
        -1.0,
        0.0,
        0.0,
        1.0,
        2.220446049250313e-16,
        0.0,
        0.0,
        0.0,
        0.0,
        1.0
      ],
      "name": "Sketchfab_model"
    },
    {
      "children": [
        2
      ],
      "matrix": [
        0.009999999776482582,
        0.0,
        0.0,
        0.0,
        0.0,
        0.0,
        0.009999999776482582,
        0.0,
        0.0,
        -0.009999999776482582,
        0.0,
        0.0,
        0.0,
        0.0,
        0.0,
        1.0
      ],
      "name": "palm.fbx"
    },
    {
      "children": [
        3
      ],
      "name": "RootNode"
    },
    {
      "children": [
        4,
        5
      ],
      "name": "Tree_0"
    },
    {
      "mesh": 0,
      "name": "Tree_0_Tree_0Mat_0"
    },
    {
      "children": [
        6,
        7
      ],
      "name": "Tree_1"
    },
    {
      "mesh": 1,
      "name": "Tree_1_Tree_1Mat_0"
    },
    {
      "children": [
        8
      ],
      "name": "Tree_2"
    },
    {
      "mesh": 2,
      "name": "Tree_2_Tree_2Mat_0"
    }
  ],
  "samplers": [
    {
      "magFilter": 9729,
      "minFilter": 9987,
      "wrapS": 10497,
      "wrapT": 10497
    }
  ],
  "scene": 0,
  "scenes": [
    {
      "name": "Sketchfab_Scene",
      "nodes": [
        0
      ]
    }
  ],
  "textures": [
    {
      "sampler": 0,
      "source": 0
    },
    {
      "sampler": 0,
      "source": 1
    },
    {
      "sampler": 0,
      "source": 2
    },
    {
      "sampler": 0,
      "source": 3
    },
    {
      "sampler": 0,
      "source": 4
    },
    {
      "sampler": 0,
      "source": 5
    },
    {
      "sampler": 0,
      "source": 6
    },
    {
      "sampler": 0,
      "source": 7
    },
    {
      "sampler": 0,
      "source": 8
    }
  ]
}
