{
    "asset" : {
        "generator" : "Khronos glTF Blender I/O v1.0.5",
        "version" : "2.0"
    },
    "scene" : 0,
    "scenes" : [
        {
            "name" : "Scene",
            "nodes" : [
                0
            ]
        }
    ],
    "nodes" : [
        {
            "mesh" : 0,
            "name" : "Cylinder"
        }
    ],
    "materials" : [
        {
            "doubleSided" : true,
            "name" : "Material.001",
            "normalTexture" : {
                "index" : 0,
                "texCoord" : 0
            },
            "pbrMetallicRoughness" : {
                "baseColorTexture" : {
                    "index" : 1,
                    "texCoord" : 0
                },
                "metallicFactor" : 0,
                "metallicRoughnessTexture" : {
                    "index" : 2,
                    "texCoord" : 0
                }
            }
        },
        {
            "doubleSided" : true,
            "name" : "Material.002",
            "normalTexture" : {
                "index" : 3,
                "texCoord" : 0
            },
            "pbrMetallicRoughness" : {
                "baseColorTexture" : {
                    "index" : 4,
                    "texCoord" : 0
                },
                "metallicRoughnessTexture" : {
                    "index" : 5,
                    "texCoord" : 0
                }
            }
        },
        {
            "doubleSided" : true,
            "name" : "Material.003",
            "normalTexture" : {
                "index" : 6,
                "texCoord" : 0
            },
            "pbrMetallicRoughness" : {
                "baseColorTexture" : {
                    "index" : 7,
                    "texCoord" : 0
                },
                "metallicRoughnessTexture" : {
                    "index" : 8,
                    "texCoord" : 0
                }
            }
        }
    ],
    "meshes" : [
        {
            "name" : "Cylinder",
            "primitives" : [
                {
                    "attributes" : {
                        "POSITION" : 0,
                        "NORMAL" : 1,
                        "TEXCOORD_0" : 2
                    },
                    "indices" : 3,
                    "material" : 0
                },
                {
                    "attributes" : {
                        "POSITION" : 4,
                        "NORMAL" : 5,
                        "TEXCOORD_0" : 6
                    },
                    "indices" : 7,
                    "material" : 1
                },
                {
                    "attributes" : {
                        "POSITION" : 8,
                        "NORMAL" : 9,
                        "TEXCOORD_0" : 10
                    },
                    "indices" : 11,
                    "material" : 2
                }
            ]
        }
    ],
    "textures" : [
        {
            "source" : 0
        },
        {
            "source" : 1
        },
        {
            "source" : 2
        },
        {
            "source" : 3
        },
        {
            "source" : 4
        },
        {
            "source" : 5
        },
        {
            "source" : 6
        },
        {
            "source" : 7
        },
        {
            "source" : 8
        }
    ],
    "images" : [
        {
            "mimeType" : "image/png",
            "name" : "rg_Normal",
            "uri" : "rg_Normal.png"
        },
        {
            "mimeType" : "image/png",
            "name" : "rg_Albedo",
            "uri" : "rg_Albedo.png"
        },
        {
            "mimeType" : "image/png",
            "name" : "rg_Roughness",
            "uri" : "rg_Roughness.png"
        },
        {
            "mimeType" : "image/png",
            "name" : "rg2_Normal",
            "uri" : "rg2_Normal.png"
        },
        {
            "mimeType" : "image/png",
            "name" : "rg2_Albedo",
            "uri" : "rg2_Albedo.png"
        },
        {
            "mimeType" : "image/png",
            "name" : "rg3_Metalness-rg2_Roughness",
            "uri" : "rg3_Metalness-rg2_Roughness.png"
        },
        {
            "mimeType" : "image/png",
            "name" : "rg3_Normal",
            "uri" : "rg3_Normal.png"
        },
        {
            "mimeType" : "image/png",
            "name" : "rg3_Albedo",
            "uri" : "rg3_Albedo.png"
        },
        {
            "mimeType" : "image/png",
            "name" : "rg3_Metalness-rg3_Roughness",
            "uri" : "rg3_Metalness-rg3_Roughness.png"
        }
    ],
    "accessors" : [
        {
            "bufferView" : 0,
            "componentType" : 5126,
            "count" : 252,
            "max" : [
                1.1572359800338745,
                6.960987567901611,
                1.1572359800338745
            ],
            "min" : [
                -1.1572359800338745,
                -1,
                -1.157235860824585
            ],
            "type" : "VEC3"
        },
        {
            "bufferView" : 1,
            "componentType" : 5126,
            "count" : 252,
            "type" : "VEC3"
        },
        {
            "bufferView" : 2,
            "componentType" : 5126,
            "count" : 252,
            "type" : "VEC2"
        },
        {
            "bufferView" : 3,
            "componentType" : 5123,
            "count" : 1152,
            "type" : "SCALAR"
        },
        {
            "bufferView" : 4,
            "componentType" : 5126,
            "count" : 779,
            "max" : [
                2.2415473461151123,
                17.39478302001953,
                2.2415480613708496
            ],
            "min" : [
                -2.241548538208008,
                -3.3240807056427,
                -2.241546869277954
            ],
            "type" : "VEC3"
        },
        {
            "bufferView" : 5,
            "componentType" : 5126,
            "count" : 779,
            "type" : "VEC3"
        },
        {
            "bufferView" : 6,
            "componentType" : 5126,
            "count" : 779,
            "type" : "VEC2"
        },
        {
            "bufferView" : 7,
            "componentType" : 5123,
            "count" : 2001,
            "type" : "SCALAR"
        },
        {
            "bufferView" : 8,
            "componentType" : 5126,
            "count" : 12,
            "max" : [
                3.478670835494995,
                -1.1213533878326416,
                3.444204807281494
            ],
            "min" : [
                -3.4754157066345215,
                -3.1213533878326416,
                -3.4995548725128174
            ],
            "type" : "VEC3"
        },
        {
            "bufferView" : 9,
            "componentType" : 5126,
            "count" : 12,
            "type" : "VEC3"
        },
        {
            "bufferView" : 10,
            "componentType" : 5126,
            "count" : 12,
            "type" : "VEC2"
        },
        {
            "bufferView" : 11,
            "componentType" : 5123,
            "count" : 12,
            "type" : "SCALAR"
        }
    ],
    "bufferViews" : [
        {
            "buffer" : 0,
            "byteLength" : 3024,
            "byteOffset" : 0
        },
        {
            "buffer" : 0,
            "byteLength" : 3024,
            "byteOffset" : 3024
        },
        {
            "buffer" : 0,
            "byteLength" : 2016,
            "byteOffset" : 6048
        },
        {
            "buffer" : 0,
            "byteLength" : 2304,
            "byteOffset" : 8064
        },
        {
            "buffer" : 0,
            "byteLength" : 9348,
            "byteOffset" : 10368
        },
        {
            "buffer" : 0,
            "byteLength" : 9348,
            "byteOffset" : 19716
        },
        {
            "buffer" : 0,
            "byteLength" : 6232,
            "byteOffset" : 29064
        },
        {
            "buffer" : 0,
            "byteLength" : 4002,
            "byteOffset" : 35296
        },
        {
            "buffer" : 0,
            "byteLength" : 144,
            "byteOffset" : 39300
        },
        {
            "buffer" : 0,
            "byteLength" : 144,
            "byteOffset" : 39444
        },
        {
            "buffer" : 0,
            "byteLength" : 96,
            "byteOffset" : 39588
        },
        {
            "buffer" : 0,
            "byteLength" : 24,
            "byteOffset" : 39684
        }
    ],
    "buffers" : [
        {
            "byteLength" : 39708,
            "uri" : "homing missile grenade.bin"
        }
    ]
}
