{
    "asset" : {
        "generator" : "Khronos glTF Blender I/O v1.0.5",
        "version" : "2.0"
    },
    "scene" : 0,
    "scenes" : [
        {
            "name" : "Scene",
            "nodes" : [
                0,
                1
            ]
        }
    ],
    "nodes" : [
        {
            "mesh" : 0,
            "name" : "Plane"
        },
        {
            "mesh" : 1,
            "name" : "Plane.001",
            "rotation" : [
                0.7071068286895752,
                0,
                0,
                0.7071067094802856
            ]
        }
    ],
    "materials" : [
        {
            "doubleSided" : true,
            "name" : "Material",
            "pbrMetallicRoughness" : {
                "metallicFactor" : 0,
                "roughnessFactor" : 0.5
            }
        }
    ],
    "meshes" : [
        {
            "name" : "Plane",
            "primitives" : [
                {
                    "attributes" : {
                        "POSITION" : 0,
                        "NORMAL" : 1,
                        "TEXCOORD_0" : 2
                    },
                    "indices" : 3
                }
            ]
        },
        {
            "name" : "Plane.001",
            "primitives" : [
                {
                    "attributes" : {
                        "POSITION" : 4,
                        "NORMAL" : 5,
                        "TEXCOORD_0" : 6
                    },
                    "indices" : 7,
                    "material" : 0
                },
                {
                    "attributes" : {
                        "POSITION" : 8,
                        "NORMAL" : 9,
                        "TEXCOORD_0" : 10
                    },
                    "indices" : 11,
                    "material" : 0
                },
                {
                    "attributes" : {
                        "POSITION" : 12,
                        "NORMAL" : 13,
                        "TEXCOORD_0" : 14
                    },
                    "indices" : 15,
                    "material" : 0
                }
            ]
        }
    ],
    "accessors" : [
        {
            "bufferView" : 0,
            "componentType" : 5126,
            "count" : 30123,
            "max" : [
                2.312866449356079,
                2.0251805782318115,
                3.9008471965789795
            ],
            "min" : [
                -2.312866449356079,
                -0.6014015078544617,
                -4.711358547210693
            ],
            "type" : "VEC3"
        },
        {
            "bufferView" : 1,
            "componentType" : 5126,
            "count" : 30123,
            "type" : "VEC3"
        },
        {
            "bufferView" : 2,
            "componentType" : 5126,
            "count" : 30123,
            "type" : "VEC2"
        },
        {
            "bufferView" : 3,
            "componentType" : 5123,
            "count" : 67944,
            "type" : "SCALAR"
        },
        {
            "bufferView" : 4,
            "componentType" : 5126,
            "count" : 65535,
            "max" : [
                1.5683324337005615,
                2.423006772994995,
                -0.06946725398302078
            ],
            "min" : [
                -1.5441563129425049,
                -3.3426194190979004,
                -0.6178890466690063
            ],
            "type" : "VEC3"
        },
        {
            "bufferView" : 5,
            "componentType" : 5126,
            "count" : 65535,
            "type" : "VEC3"
        },
        {
            "bufferView" : 6,
            "componentType" : 5126,
            "count" : 65535,
            "type" : "VEC2"
        },
        {
            "bufferView" : 7,
            "componentType" : 5123,
            "count" : 99687,
            "type" : "SCALAR"
        },
        {
            "bufferView" : 8,
            "componentType" : 5126,
            "count" : 28384,
            "max" : [
                1.4785606861114502,
                2.1034607887268066,
                -0.06946724653244019
            ],
            "min" : [
                -1.5709317922592163,
                -3.3426194190979004,
                -0.6178890466690063
            ],
            "type" : "VEC3"
        },
        {
            "bufferView" : 9,
            "componentType" : 5126,
            "count" : 28384,
            "type" : "VEC3"
        },
        {
            "bufferView" : 10,
            "componentType" : 5126,
            "count" : 28384,
            "type" : "VEC2"
        },
        {
            "bufferView" : 11,
            "componentType" : 5123,
            "count" : 43140,
            "type" : "SCALAR"
        },
        {
            "bufferView" : 12,
            "componentType" : 5126,
            "count" : 15,
            "max" : [
                1.4254984855651855,
                1.9901093244552612,
                -0.269397497177124
            ],
            "min" : [
                -1.2251441478729248,
                -2.8935654163360596,
                -0.3755721151828766
            ],
            "type" : "VEC3"
        },
        {
            "bufferView" : 13,
            "componentType" : 5126,
            "count" : 15,
            "type" : "VEC3"
        },
        {
            "bufferView" : 14,
            "componentType" : 5126,
            "count" : 15,
            "type" : "VEC2"
        },
        {
            "bufferView" : 15,
            "componentType" : 5123,
            "count" : 21,
            "type" : "SCALAR"
        }
    ],
    "bufferViews" : [
        {
            "buffer" : 0,
            "byteLength" : 361476,
            "byteOffset" : 0
        },
        {
            "buffer" : 0,
            "byteLength" : 361476,
            "byteOffset" : 361476
        },
        {
            "buffer" : 0,
            "byteLength" : 240984,
            "byteOffset" : 722952
        },
        {
            "buffer" : 0,
            "byteLength" : 135888,
            "byteOffset" : 963936
        },
        {
            "buffer" : 0,
            "byteLength" : 786420,
            "byteOffset" : 1099824
        },
        {
            "buffer" : 0,
            "byteLength" : 786420,
            "byteOffset" : 1886244
        },
        {
            "buffer" : 0,
            "byteLength" : 524280,
            "byteOffset" : 2672664
        },
        {
            "buffer" : 0,
            "byteLength" : 199374,
            "byteOffset" : 3196944
        },
        {
            "buffer" : 0,
            "byteLength" : 340608,
            "byteOffset" : 3396320
        },
        {
            "buffer" : 0,
            "byteLength" : 340608,
            "byteOffset" : 3736928
        },
        {
            "buffer" : 0,
            "byteLength" : 227072,
            "byteOffset" : 4077536
        },
        {
            "buffer" : 0,
            "byteLength" : 86280,
            "byteOffset" : 4304608
        },
        {
            "buffer" : 0,
            "byteLength" : 180,
            "byteOffset" : 4390888
        },
        {
            "buffer" : 0,
            "byteLength" : 180,
            "byteOffset" : 4391068
        },
        {
            "buffer" : 0,
            "byteLength" : 120,
            "byteOffset" : 4391248
        },
        {
            "buffer" : 0,
            "byteLength" : 42,
            "byteOffset" : 4391368
        }
    ],
    "buffers" : [
        {
            "byteLength" : 4391412,
            "uri" : "junker.bin"
        }
    ]
}
