{
  "accessors": [
    {
      "bufferView": 2,
      "componentType": 5126,
      "count": 7325,
      "max": [
        7.284324645996094,
        27.79869270324707,
        7.8946533203125
      ],
      "min": [
        -7.284324645996094,
        -0.0013056397438049316,
        -5.41323709487915
      ],
      "type": "VEC3"
    },
    {
      "bufferView": 2,
      "byteOffset": 87900,
      "componentType": 5126,
      "count": 7325,
      "max": [
        1.0,
        1.0,
        1.0
      ],
      "min": [
        -1.0,
        -1.0,
        -1.0
      ],
      "type": "VEC3"
    },
    {
      "bufferView": 1,
      "componentType": 5126,
      "count": 7325,
      "max": [
        0.9366861581802368,
        0.9980079531669617
      ],
      "min": [
        0.0018696337938308716,
        0.0019920319318771362
      ],
      "type": "VEC2"
    },
    {
      "bufferView": 0,
      "componentType": 5125,
      "count": 24348,
      "type": "SCALAR"
    }
  ],
  "asset": {
    "extras": {
      "author": "gunduzhan (https://sketchfab.com/gunduzhan)",
      "license": "CC-BY-4.0 (http://creativecommons.org/licenses/by/4.0/)",
      "source": "https://sketchfab.com/3d-models/nuka-cola-vending-machine-d67e3f3d1bdd4a4e8b63c489cd55a5fc",
      "title": "Nuka Cola Vending Machine"
    },
    "generator": "Sketchfab-12.66.0",
    "version": "2.0"
  },
  "bufferViews": [
    {
      "buffer": 0,
      "byteLength": 97392,
      "name": "floatBufferViews",
      "target": 34963
    },
    {
      "buffer": 0,
      "byteLength": 58600,
      "byteOffset": 97392,
      "byteStride": 8,
      "name": "floatBufferViews",
      "target": 34962
    },
    {
      "buffer": 0,
      "byteLength": 175800,
      "byteOffset": 155992,
      "byteStride": 12,
      "name": "floatBufferViews",
      "target": 34962
    }
  ],
  "buffers": [
    {
      "byteLength": 331792,
      "uri": "scene.bin"
    }
  ],
  "images": [
    {
      "uri": "textures/beyaz_baseColor.jpeg"
    },
    {
      "uri": "textures/beyaz_metallicRoughness.png"
    }
  ],
  "materials": [
    {
      "name": "beyaz",
      "pbrMetallicRoughness": {
        "baseColorTexture": {
          "index": 0
        },
        "metallicRoughnessTexture": {
          "index": 1
        }
      }
    }
  ],
  "meshes": [
    {
      "name": "vending_beyaz_0",
      "primitives": [
        {
          "attributes": {
            "NORMAL": 1,
            "POSITION": 0,
            "TEXCOORD_0": 2
          },
          "indices": 3,
          "material": 0,
          "mode": 4
        }
      ]
    }
  ],
  "nodes": [
    {
      "children": [
        1
      ],
      "matrix": [
        1.0,
        0.0,
        0.0,
        0.0,
        0.0,
        2.220446049250313e-16,
        -1.0,
        0.0,
        0.0,
        1.0,
        2.220446049250313e-16,
        0.0,
        0.0,
        0.0,
        0.0,
        1.0
      ],
      "name": "Sketchfab_model"
    },
    {
      "children": [
        2
      ],
      "matrix": [
        1.0,
        0.0,
        0.0,
        0.0,
        0.0,
        0.0,
        1.0,
        0.0,
        0.0,
        -1.0,
        0.0,
        0.0,
        0.0,
        0.0,
        0.0,
        1.0
      ],
      "name": "9f7d8e386d154aadae7bc3d92791f6aa.fbx"
    },
    {
      "children": [
        3
      ],
      "name": "RootNode"
    },
    {
      "children": [
        4
      ],
      "name": "vending"
    },
    {
      "mesh": 0,
      "name": "vending_beyaz_0"
    }
  ],
  "samplers": [
    {
      "magFilter": 9729,
      "minFilter": 9987,
      "wrapS": 10497,
      "wrapT": 10497
    }
  ],
  "scene": 0,
  "scenes": [
    {
      "name": "Sketchfab_Scene",
      "nodes": [
        0
      ]
    }
  ],
  "textures": [
    {
      "sampler": 0,
      "source": 0
    },
    {
      "sampler": 0,
      "source": 1
    }
  ]
}
