{
  "accessors": [
    {
      "bufferView": 2,
      "componentType": 5126,
      "count": 6026,
      "max": [
        258.2384338378906,
        207.2733612060547,
        207.46044921875
      ],
      "min": [
        -320.42132568359375,
        -31.914278030395508,
        -207.46044921875
      ],
      "type": "VEC3"
    },
    {
      "bufferView": 2,
      "byteOffset": 72312,
      "componentType": 5126,
      "count": 6026,
      "max": [
        1.0,
        1.0,
        1.0
      ],
      "min": [
        -1.0,
        -1.0,
        -1.0
      ],
      "type": "VEC3"
    },
    {
      "bufferView": 3,
      "componentType": 5126,
      "count": 6026,
      "max": [
        1.0,
        1.0,
        1.0,
        1.0
      ],
      "min": [
        -1.0,
        -1.0,
        -1.0,
        -1.0
      ],
      "type": "VEC4"
    },
    {
      "bufferView": 1,
      "componentType": 5126,
      "count": 6026,
      "max": [
        0.9942072629928589,
        0.9930301904678345
      ],
      "min": [
        0.005792674142867327,
        0.005792669951915741
      ],
      "type": "VEC2"
    },
    {
      "bufferView": 0,
      "componentType": 5125,
      "count": 15204,
      "type": "SCALAR"
    },
    {
      "bufferView": 2,
      "byteOffset": 144624,
      "componentType": 5126,
      "count": 847,
      "max": [
        344.224365234375,
        2.5419387817382813,
        142.49819946289063
      ],
      "min": [
        -269.7697448730469,
        -5.355554580688477,
        -130.18760681152344
      ],
      "type": "VEC3"
    },
    {
      "bufferView": 2,
      "byteOffset": 154788,
      "componentType": 5126,
      "count": 847,
      "max": [
        0.9995203018188477,
        0.9659644961357117,
        0.999082088470459
      ],
      "min": [
        -0.9995310306549072,
        -0.9675145149230957,
        -0.9990637302398682
      ],
      "type": "VEC3"
    },
    {
      "bufferView": 3,
      "byteOffset": 96416,
      "componentType": 5126,
      "count": 847,
      "max": [
        0.9504089951515198,
        0.9998278617858887,
        0.9645743370056152,
        1.0
      ],
      "min": [
        -0.9554754495620728,
        -0.9999939799308777,
        -0.964676022529602,
        1.0
      ],
      "type": "VEC4"
    },
    {
      "bufferView": 1,
      "byteOffset": 48208,
      "componentType": 5126,
      "count": 847,
      "max": [
        0.8162378668785095,
        0.6519668102264404
      ],
      "min": [
        0.8028517961502075,
        0.005792674142867327
      ],
      "type": "VEC2"
    },
    {
      "bufferView": 0,
      "byteOffset": 60816,
      "componentType": 5125,
      "count": 4560,
      "type": "SCALAR"
    }
  ],
  "asset": {
    "extras": {
      "author": "Sousinho (https://sketchfab.com/sousinho)",
      "license": "CC-BY-4.0 (http://creativecommons.org/licenses/by/4.0/)",
      "source": "https://sketchfab.com/3d-models/sci-fi-mobile-teleporter-818f2e70362041cb8fee9f68a97b45fe",
      "title": "Sci Fi Mobile Teleporter"
    },
    "generator": "Sketchfab-12.59.0",
    "version": "2.0"
  },
  "bufferViews": [
    {
      "buffer": 0,
      "byteLength": 79056,
      "name": "floatBufferViews",
      "target": 34963
    },
    {
      "buffer": 0,
      "byteLength": 54984,
      "byteOffset": 79056,
      "byteStride": 8,
      "name": "floatBufferViews",
      "target": 34962
    },
    {
      "buffer": 0,
      "byteLength": 164952,
      "byteOffset": 134040,
      "byteStride": 12,
      "name": "floatBufferViews",
      "target": 34962
    },
    {
      "buffer": 0,
      "byteLength": 109968,
      "byteOffset": 298992,
      "byteStride": 16,
      "name": "floatBufferViews",
      "target": 34962
    }
  ],
  "buffers": [
    {
      "byteLength": 408960,
      "uri": "scene.bin"
    }
  ],
  "images": [
    {
      "uri": "textures/teleporter_baseColor.png"
    },
    {
      "uri": "textures/teleporter_metallicRoughness.png"
    },
    {
      "uri": "textures/teleporter_emissive.png"
    },
    {
      "uri": "textures/teleporter_normal.png"
    }
  ],
  "materials": [
    {
      "doubleSided": true,
      "emissiveFactor": [
        1.0,
        1.0,
        1.0
      ],
      "emissiveTexture": {
        "index": 2
      },
      "name": "teleporter",
      "normalTexture": {
        "index": 3
      },
      "pbrMetallicRoughness": {
        "baseColorTexture": {
          "index": 0
        },
        "metallicRoughnessTexture": {
          "index": 1
        }
      }
    }
  ],
  "meshes": [
    {
      "name": "Cylinder.054_teleporter_0",
      "primitives": [
        {
          "attributes": {
            "NORMAL": 1,
            "POSITION": 0,
            "TANGENT": 2,
            "TEXCOORD_0": 3
          },
          "indices": 4,
          "material": 0,
          "mode": 4
        }
      ]
    },
    {
      "name": "BezierCurve_teleporter_0",
      "primitives": [
        {
          "attributes": {
            "NORMAL": 6,
            "POSITION": 5,
            "TANGENT": 7,
            "TEXCOORD_0": 8
          },
          "indices": 9,
          "material": 0,
          "mode": 4
        }
      ]
    }
  ],
  "nodes": [
    {
      "children": [
        1
      ],
      "matrix": [
        1.0,
        0.0,
        0.0,
        0.0,
        0.0,
        2.220446049250313e-16,
        -1.0,
        0.0,
        0.0,
        1.0,
        2.220446049250313e-16,
        0.0,
        0.0,
        0.0,
        0.0,
        1.0
      ],
      "name": "Sketchfab_model"
    },
    {
      "children": [
        2
      ],
      "matrix": [
        0.009999999776482582,
        0.0,
        0.0,
        0.0,
        0.0,
        0.0,
        0.009999999776482582,
        0.0,
        0.0,
        -0.009999999776482582,
        0.0,
        0.0,
        0.0,
        0.0,
        0.0,
        1.0
      ],
      "name": "teleporter1.fbx"
    },
    {
      "children": [
        3,
        5
      ],
      "name": "RootNode"
    },
    {
      "children": [
        4
      ],
      "matrix": [
        1.0,
        0.0,
        0.0,
        0.0,
        0.0,
        1.0,
        0.0,
        0.0,
        0.0,
        0.0,
        1.0,
        0.0,
        -3.003831148147583,
        23.476964950561523,
        9.076638221740723,
        1.0
      ],
      "name": "Cylinder.054"
    },
    {
      "mesh": 0,
      "name": "Cylinder.054_teleporter_0"
    },
    {
      "children": [
        6
      ],
      "matrix": [
        1.0,
        0.0,
        0.0,
        0.0,
        0.0,
        -0.9999999999999889,
        1.509957990978371e-07,
        0.0,
        0.0,
        -1.509957990978371e-07,
        -0.9999999999999889,
        0.0,
        114.01057434082031,
        -7.2711358070373535,
        140.70237731933594,
        1.0
      ],
      "name": "BezierCurve"
    },
    {
      "mesh": 1,
      "name": "BezierCurve_teleporter_0"
    }
  ],
  "samplers": [
    {
      "magFilter": 9729,
      "minFilter": 9987,
      "wrapS": 10497,
      "wrapT": 10497
    }
  ],
  "scene": 0,
  "scenes": [
    {
      "name": "Sketchfab_Scene",
      "nodes": [
        0
      ]
    }
  ],
  "textures": [
    {
      "sampler": 0,
      "source": 0
    },
    {
      "sampler": 0,
      "source": 1
    },
    {
      "sampler": 0,
      "source": 2
    },
    {
      "sampler": 0,
      "source": 3
    }
  ]
}
