{
    "asset" : {
        "generator" : "Khronos glTF Blender I/O v1.0.5",
        "version" : "2.0"
    },
    "scene" : 0,
    "scenes" : [
        {
            "name" : "Scene",
            "nodes" : [
                0
            ]
        }
    ],
    "nodes" : [
        {
            "mesh" : 0,
            "name" : "Plane"
        }
    ],
    "meshes" : [
        {
            "name" : "Plane",
            "primitives" : [
                {
                    "attributes" : {
                        "POSITION" : 0,
                        "NORMAL" : 1,
                        "TEXCOORD_0" : 2
                    },
                    "indices" : 3
                }
            ]
        }
    ],
    "accessors" : [
        {
            "bufferView" : 0,
            "componentType" : 5126,
            "count" : 32001,
            "max" : [
                2.455430507659912,
                1.4247710704803467,
                1.296964168548584
            ],
            "min" : [
                -2.455430507659912,
                -3.4525671005249023,
                -4.5718536376953125
            ],
            "type" : "VEC3"
        },
        {
            "bufferView" : 1,
            "componentType" : 5126,
            "count" : 32001,
            "type" : "VEC3"
        },
        {
            "bufferView" : 2,
            "componentType" : 5126,
            "count" : 32001,
            "type" : "VEC2"
        },
        {
            "bufferView" : 3,
            "componentType" : 5123,
            "count" : 49536,
            "type" : "SCALAR"
        }
    ],
    "bufferViews" : [
        {
            "buffer" : 0,
            "byteLength" : 384012,
            "byteOffset" : 0
        },
        {
            "buffer" : 0,
            "byteLength" : 384012,
            "byteOffset" : 384012
        },
        {
            "buffer" : 0,
            "byteLength" : 256008,
            "byteOffset" : 768024
        },
        {
            "buffer" : 0,
            "byteLength" : 99072,
            "byteOffset" : 1024032
        }
    ],
    "buffers" : [
        {
            "byteLength" : 1123104,
            "uri" : "2109mech.bin"
        }
    ]
}
